G75*
%MOIN*%
%OFA0B0*%
%FSLAX25Y25*%
%IPPOS*%
%LPD*%
%AMOC8*
5,1,8,0,0,1.08239X$1,22.5*
%
%ADD10C,0.00000*%
%ADD11C,0.00400*%
%ADD12C,0.01600*%
%ADD13C,0.00800*%
%ADD14C,0.00500*%
%ADD15C,0.00600*%
%ADD16C,0.01200*%
%ADD17C,0.01000*%
D10*
X0001800Y0001800D02*
X0001800Y0193650D01*
X0198650Y0193650D01*
X0198650Y0001800D01*
X0001800Y0001800D01*
X0105333Y0188050D02*
X0105335Y0188138D01*
X0105341Y0188226D01*
X0105351Y0188314D01*
X0105365Y0188402D01*
X0105382Y0188488D01*
X0105404Y0188574D01*
X0105429Y0188658D01*
X0105459Y0188742D01*
X0105491Y0188824D01*
X0105528Y0188904D01*
X0105568Y0188983D01*
X0105612Y0189060D01*
X0105659Y0189135D01*
X0105709Y0189207D01*
X0105763Y0189278D01*
X0105819Y0189345D01*
X0105879Y0189411D01*
X0105941Y0189473D01*
X0106007Y0189533D01*
X0106074Y0189589D01*
X0106145Y0189643D01*
X0106217Y0189693D01*
X0106292Y0189740D01*
X0106369Y0189784D01*
X0106448Y0189824D01*
X0106528Y0189861D01*
X0106610Y0189893D01*
X0106694Y0189923D01*
X0106778Y0189948D01*
X0106864Y0189970D01*
X0106950Y0189987D01*
X0107038Y0190001D01*
X0107126Y0190011D01*
X0107214Y0190017D01*
X0107302Y0190019D01*
X0107390Y0190017D01*
X0107478Y0190011D01*
X0107566Y0190001D01*
X0107654Y0189987D01*
X0107740Y0189970D01*
X0107826Y0189948D01*
X0107910Y0189923D01*
X0107994Y0189893D01*
X0108076Y0189861D01*
X0108156Y0189824D01*
X0108235Y0189784D01*
X0108312Y0189740D01*
X0108387Y0189693D01*
X0108459Y0189643D01*
X0108530Y0189589D01*
X0108597Y0189533D01*
X0108663Y0189473D01*
X0108725Y0189411D01*
X0108785Y0189345D01*
X0108841Y0189278D01*
X0108895Y0189207D01*
X0108945Y0189135D01*
X0108992Y0189060D01*
X0109036Y0188983D01*
X0109076Y0188904D01*
X0109113Y0188824D01*
X0109145Y0188742D01*
X0109175Y0188658D01*
X0109200Y0188574D01*
X0109222Y0188488D01*
X0109239Y0188402D01*
X0109253Y0188314D01*
X0109263Y0188226D01*
X0109269Y0188138D01*
X0109271Y0188050D01*
X0109269Y0187962D01*
X0109263Y0187874D01*
X0109253Y0187786D01*
X0109239Y0187698D01*
X0109222Y0187612D01*
X0109200Y0187526D01*
X0109175Y0187442D01*
X0109145Y0187358D01*
X0109113Y0187276D01*
X0109076Y0187196D01*
X0109036Y0187117D01*
X0108992Y0187040D01*
X0108945Y0186965D01*
X0108895Y0186893D01*
X0108841Y0186822D01*
X0108785Y0186755D01*
X0108725Y0186689D01*
X0108663Y0186627D01*
X0108597Y0186567D01*
X0108530Y0186511D01*
X0108459Y0186457D01*
X0108387Y0186407D01*
X0108312Y0186360D01*
X0108235Y0186316D01*
X0108156Y0186276D01*
X0108076Y0186239D01*
X0107994Y0186207D01*
X0107910Y0186177D01*
X0107826Y0186152D01*
X0107740Y0186130D01*
X0107654Y0186113D01*
X0107566Y0186099D01*
X0107478Y0186089D01*
X0107390Y0186083D01*
X0107302Y0186081D01*
X0107214Y0186083D01*
X0107126Y0186089D01*
X0107038Y0186099D01*
X0106950Y0186113D01*
X0106864Y0186130D01*
X0106778Y0186152D01*
X0106694Y0186177D01*
X0106610Y0186207D01*
X0106528Y0186239D01*
X0106448Y0186276D01*
X0106369Y0186316D01*
X0106292Y0186360D01*
X0106217Y0186407D01*
X0106145Y0186457D01*
X0106074Y0186511D01*
X0106007Y0186567D01*
X0105941Y0186627D01*
X0105879Y0186689D01*
X0105819Y0186755D01*
X0105763Y0186822D01*
X0105709Y0186893D01*
X0105659Y0186965D01*
X0105612Y0187040D01*
X0105568Y0187117D01*
X0105528Y0187196D01*
X0105491Y0187276D01*
X0105459Y0187358D01*
X0105429Y0187442D01*
X0105404Y0187526D01*
X0105382Y0187612D01*
X0105365Y0187698D01*
X0105351Y0187786D01*
X0105341Y0187874D01*
X0105335Y0187962D01*
X0105333Y0188050D01*
X0113601Y0188050D02*
X0113603Y0188129D01*
X0113609Y0188208D01*
X0113619Y0188287D01*
X0113633Y0188365D01*
X0113650Y0188442D01*
X0113672Y0188518D01*
X0113697Y0188593D01*
X0113727Y0188666D01*
X0113759Y0188738D01*
X0113796Y0188809D01*
X0113836Y0188877D01*
X0113879Y0188943D01*
X0113925Y0189007D01*
X0113975Y0189069D01*
X0114028Y0189128D01*
X0114083Y0189184D01*
X0114142Y0189238D01*
X0114203Y0189288D01*
X0114266Y0189336D01*
X0114332Y0189380D01*
X0114400Y0189421D01*
X0114470Y0189458D01*
X0114541Y0189492D01*
X0114615Y0189522D01*
X0114689Y0189548D01*
X0114765Y0189570D01*
X0114842Y0189589D01*
X0114920Y0189604D01*
X0114998Y0189615D01*
X0115077Y0189622D01*
X0115156Y0189625D01*
X0115235Y0189624D01*
X0115314Y0189619D01*
X0115393Y0189610D01*
X0115471Y0189597D01*
X0115548Y0189580D01*
X0115625Y0189560D01*
X0115700Y0189535D01*
X0115774Y0189507D01*
X0115847Y0189475D01*
X0115917Y0189440D01*
X0115986Y0189401D01*
X0116053Y0189358D01*
X0116118Y0189312D01*
X0116180Y0189264D01*
X0116240Y0189212D01*
X0116297Y0189157D01*
X0116351Y0189099D01*
X0116402Y0189039D01*
X0116450Y0188976D01*
X0116495Y0188911D01*
X0116537Y0188843D01*
X0116575Y0188774D01*
X0116609Y0188703D01*
X0116640Y0188630D01*
X0116668Y0188555D01*
X0116691Y0188480D01*
X0116711Y0188403D01*
X0116727Y0188326D01*
X0116739Y0188247D01*
X0116747Y0188169D01*
X0116751Y0188090D01*
X0116751Y0188010D01*
X0116747Y0187931D01*
X0116739Y0187853D01*
X0116727Y0187774D01*
X0116711Y0187697D01*
X0116691Y0187620D01*
X0116668Y0187545D01*
X0116640Y0187470D01*
X0116609Y0187397D01*
X0116575Y0187326D01*
X0116537Y0187257D01*
X0116495Y0187189D01*
X0116450Y0187124D01*
X0116402Y0187061D01*
X0116351Y0187001D01*
X0116297Y0186943D01*
X0116240Y0186888D01*
X0116180Y0186836D01*
X0116118Y0186788D01*
X0116053Y0186742D01*
X0115986Y0186699D01*
X0115917Y0186660D01*
X0115847Y0186625D01*
X0115774Y0186593D01*
X0115700Y0186565D01*
X0115625Y0186540D01*
X0115548Y0186520D01*
X0115471Y0186503D01*
X0115393Y0186490D01*
X0115314Y0186481D01*
X0115235Y0186476D01*
X0115156Y0186475D01*
X0115077Y0186478D01*
X0114998Y0186485D01*
X0114920Y0186496D01*
X0114842Y0186511D01*
X0114765Y0186530D01*
X0114689Y0186552D01*
X0114615Y0186578D01*
X0114541Y0186608D01*
X0114470Y0186642D01*
X0114400Y0186679D01*
X0114332Y0186720D01*
X0114266Y0186764D01*
X0114203Y0186812D01*
X0114142Y0186862D01*
X0114083Y0186916D01*
X0114028Y0186972D01*
X0113975Y0187031D01*
X0113925Y0187093D01*
X0113879Y0187157D01*
X0113836Y0187223D01*
X0113796Y0187291D01*
X0113759Y0187362D01*
X0113727Y0187434D01*
X0113697Y0187507D01*
X0113672Y0187582D01*
X0113650Y0187658D01*
X0113633Y0187735D01*
X0113619Y0187813D01*
X0113609Y0187892D01*
X0113603Y0187971D01*
X0113601Y0188050D01*
X0121475Y0188050D02*
X0121477Y0188129D01*
X0121483Y0188208D01*
X0121493Y0188287D01*
X0121507Y0188365D01*
X0121524Y0188442D01*
X0121546Y0188518D01*
X0121571Y0188593D01*
X0121601Y0188666D01*
X0121633Y0188738D01*
X0121670Y0188809D01*
X0121710Y0188877D01*
X0121753Y0188943D01*
X0121799Y0189007D01*
X0121849Y0189069D01*
X0121902Y0189128D01*
X0121957Y0189184D01*
X0122016Y0189238D01*
X0122077Y0189288D01*
X0122140Y0189336D01*
X0122206Y0189380D01*
X0122274Y0189421D01*
X0122344Y0189458D01*
X0122415Y0189492D01*
X0122489Y0189522D01*
X0122563Y0189548D01*
X0122639Y0189570D01*
X0122716Y0189589D01*
X0122794Y0189604D01*
X0122872Y0189615D01*
X0122951Y0189622D01*
X0123030Y0189625D01*
X0123109Y0189624D01*
X0123188Y0189619D01*
X0123267Y0189610D01*
X0123345Y0189597D01*
X0123422Y0189580D01*
X0123499Y0189560D01*
X0123574Y0189535D01*
X0123648Y0189507D01*
X0123721Y0189475D01*
X0123791Y0189440D01*
X0123860Y0189401D01*
X0123927Y0189358D01*
X0123992Y0189312D01*
X0124054Y0189264D01*
X0124114Y0189212D01*
X0124171Y0189157D01*
X0124225Y0189099D01*
X0124276Y0189039D01*
X0124324Y0188976D01*
X0124369Y0188911D01*
X0124411Y0188843D01*
X0124449Y0188774D01*
X0124483Y0188703D01*
X0124514Y0188630D01*
X0124542Y0188555D01*
X0124565Y0188480D01*
X0124585Y0188403D01*
X0124601Y0188326D01*
X0124613Y0188247D01*
X0124621Y0188169D01*
X0124625Y0188090D01*
X0124625Y0188010D01*
X0124621Y0187931D01*
X0124613Y0187853D01*
X0124601Y0187774D01*
X0124585Y0187697D01*
X0124565Y0187620D01*
X0124542Y0187545D01*
X0124514Y0187470D01*
X0124483Y0187397D01*
X0124449Y0187326D01*
X0124411Y0187257D01*
X0124369Y0187189D01*
X0124324Y0187124D01*
X0124276Y0187061D01*
X0124225Y0187001D01*
X0124171Y0186943D01*
X0124114Y0186888D01*
X0124054Y0186836D01*
X0123992Y0186788D01*
X0123927Y0186742D01*
X0123860Y0186699D01*
X0123791Y0186660D01*
X0123721Y0186625D01*
X0123648Y0186593D01*
X0123574Y0186565D01*
X0123499Y0186540D01*
X0123422Y0186520D01*
X0123345Y0186503D01*
X0123267Y0186490D01*
X0123188Y0186481D01*
X0123109Y0186476D01*
X0123030Y0186475D01*
X0122951Y0186478D01*
X0122872Y0186485D01*
X0122794Y0186496D01*
X0122716Y0186511D01*
X0122639Y0186530D01*
X0122563Y0186552D01*
X0122489Y0186578D01*
X0122415Y0186608D01*
X0122344Y0186642D01*
X0122274Y0186679D01*
X0122206Y0186720D01*
X0122140Y0186764D01*
X0122077Y0186812D01*
X0122016Y0186862D01*
X0121957Y0186916D01*
X0121902Y0186972D01*
X0121849Y0187031D01*
X0121799Y0187093D01*
X0121753Y0187157D01*
X0121710Y0187223D01*
X0121670Y0187291D01*
X0121633Y0187362D01*
X0121601Y0187434D01*
X0121571Y0187507D01*
X0121546Y0187582D01*
X0121524Y0187658D01*
X0121507Y0187735D01*
X0121493Y0187813D01*
X0121483Y0187892D01*
X0121477Y0187971D01*
X0121475Y0188050D01*
X0129349Y0188050D02*
X0129351Y0188129D01*
X0129357Y0188208D01*
X0129367Y0188287D01*
X0129381Y0188365D01*
X0129398Y0188442D01*
X0129420Y0188518D01*
X0129445Y0188593D01*
X0129475Y0188666D01*
X0129507Y0188738D01*
X0129544Y0188809D01*
X0129584Y0188877D01*
X0129627Y0188943D01*
X0129673Y0189007D01*
X0129723Y0189069D01*
X0129776Y0189128D01*
X0129831Y0189184D01*
X0129890Y0189238D01*
X0129951Y0189288D01*
X0130014Y0189336D01*
X0130080Y0189380D01*
X0130148Y0189421D01*
X0130218Y0189458D01*
X0130289Y0189492D01*
X0130363Y0189522D01*
X0130437Y0189548D01*
X0130513Y0189570D01*
X0130590Y0189589D01*
X0130668Y0189604D01*
X0130746Y0189615D01*
X0130825Y0189622D01*
X0130904Y0189625D01*
X0130983Y0189624D01*
X0131062Y0189619D01*
X0131141Y0189610D01*
X0131219Y0189597D01*
X0131296Y0189580D01*
X0131373Y0189560D01*
X0131448Y0189535D01*
X0131522Y0189507D01*
X0131595Y0189475D01*
X0131665Y0189440D01*
X0131734Y0189401D01*
X0131801Y0189358D01*
X0131866Y0189312D01*
X0131928Y0189264D01*
X0131988Y0189212D01*
X0132045Y0189157D01*
X0132099Y0189099D01*
X0132150Y0189039D01*
X0132198Y0188976D01*
X0132243Y0188911D01*
X0132285Y0188843D01*
X0132323Y0188774D01*
X0132357Y0188703D01*
X0132388Y0188630D01*
X0132416Y0188555D01*
X0132439Y0188480D01*
X0132459Y0188403D01*
X0132475Y0188326D01*
X0132487Y0188247D01*
X0132495Y0188169D01*
X0132499Y0188090D01*
X0132499Y0188010D01*
X0132495Y0187931D01*
X0132487Y0187853D01*
X0132475Y0187774D01*
X0132459Y0187697D01*
X0132439Y0187620D01*
X0132416Y0187545D01*
X0132388Y0187470D01*
X0132357Y0187397D01*
X0132323Y0187326D01*
X0132285Y0187257D01*
X0132243Y0187189D01*
X0132198Y0187124D01*
X0132150Y0187061D01*
X0132099Y0187001D01*
X0132045Y0186943D01*
X0131988Y0186888D01*
X0131928Y0186836D01*
X0131866Y0186788D01*
X0131801Y0186742D01*
X0131734Y0186699D01*
X0131665Y0186660D01*
X0131595Y0186625D01*
X0131522Y0186593D01*
X0131448Y0186565D01*
X0131373Y0186540D01*
X0131296Y0186520D01*
X0131219Y0186503D01*
X0131141Y0186490D01*
X0131062Y0186481D01*
X0130983Y0186476D01*
X0130904Y0186475D01*
X0130825Y0186478D01*
X0130746Y0186485D01*
X0130668Y0186496D01*
X0130590Y0186511D01*
X0130513Y0186530D01*
X0130437Y0186552D01*
X0130363Y0186578D01*
X0130289Y0186608D01*
X0130218Y0186642D01*
X0130148Y0186679D01*
X0130080Y0186720D01*
X0130014Y0186764D01*
X0129951Y0186812D01*
X0129890Y0186862D01*
X0129831Y0186916D01*
X0129776Y0186972D01*
X0129723Y0187031D01*
X0129673Y0187093D01*
X0129627Y0187157D01*
X0129584Y0187223D01*
X0129544Y0187291D01*
X0129507Y0187362D01*
X0129475Y0187434D01*
X0129445Y0187507D01*
X0129420Y0187582D01*
X0129398Y0187658D01*
X0129381Y0187735D01*
X0129367Y0187813D01*
X0129357Y0187892D01*
X0129351Y0187971D01*
X0129349Y0188050D01*
X0136829Y0188050D02*
X0136831Y0188138D01*
X0136837Y0188226D01*
X0136847Y0188314D01*
X0136861Y0188402D01*
X0136878Y0188488D01*
X0136900Y0188574D01*
X0136925Y0188658D01*
X0136955Y0188742D01*
X0136987Y0188824D01*
X0137024Y0188904D01*
X0137064Y0188983D01*
X0137108Y0189060D01*
X0137155Y0189135D01*
X0137205Y0189207D01*
X0137259Y0189278D01*
X0137315Y0189345D01*
X0137375Y0189411D01*
X0137437Y0189473D01*
X0137503Y0189533D01*
X0137570Y0189589D01*
X0137641Y0189643D01*
X0137713Y0189693D01*
X0137788Y0189740D01*
X0137865Y0189784D01*
X0137944Y0189824D01*
X0138024Y0189861D01*
X0138106Y0189893D01*
X0138190Y0189923D01*
X0138274Y0189948D01*
X0138360Y0189970D01*
X0138446Y0189987D01*
X0138534Y0190001D01*
X0138622Y0190011D01*
X0138710Y0190017D01*
X0138798Y0190019D01*
X0138886Y0190017D01*
X0138974Y0190011D01*
X0139062Y0190001D01*
X0139150Y0189987D01*
X0139236Y0189970D01*
X0139322Y0189948D01*
X0139406Y0189923D01*
X0139490Y0189893D01*
X0139572Y0189861D01*
X0139652Y0189824D01*
X0139731Y0189784D01*
X0139808Y0189740D01*
X0139883Y0189693D01*
X0139955Y0189643D01*
X0140026Y0189589D01*
X0140093Y0189533D01*
X0140159Y0189473D01*
X0140221Y0189411D01*
X0140281Y0189345D01*
X0140337Y0189278D01*
X0140391Y0189207D01*
X0140441Y0189135D01*
X0140488Y0189060D01*
X0140532Y0188983D01*
X0140572Y0188904D01*
X0140609Y0188824D01*
X0140641Y0188742D01*
X0140671Y0188658D01*
X0140696Y0188574D01*
X0140718Y0188488D01*
X0140735Y0188402D01*
X0140749Y0188314D01*
X0140759Y0188226D01*
X0140765Y0188138D01*
X0140767Y0188050D01*
X0140765Y0187962D01*
X0140759Y0187874D01*
X0140749Y0187786D01*
X0140735Y0187698D01*
X0140718Y0187612D01*
X0140696Y0187526D01*
X0140671Y0187442D01*
X0140641Y0187358D01*
X0140609Y0187276D01*
X0140572Y0187196D01*
X0140532Y0187117D01*
X0140488Y0187040D01*
X0140441Y0186965D01*
X0140391Y0186893D01*
X0140337Y0186822D01*
X0140281Y0186755D01*
X0140221Y0186689D01*
X0140159Y0186627D01*
X0140093Y0186567D01*
X0140026Y0186511D01*
X0139955Y0186457D01*
X0139883Y0186407D01*
X0139808Y0186360D01*
X0139731Y0186316D01*
X0139652Y0186276D01*
X0139572Y0186239D01*
X0139490Y0186207D01*
X0139406Y0186177D01*
X0139322Y0186152D01*
X0139236Y0186130D01*
X0139150Y0186113D01*
X0139062Y0186099D01*
X0138974Y0186089D01*
X0138886Y0186083D01*
X0138798Y0186081D01*
X0138710Y0186083D01*
X0138622Y0186089D01*
X0138534Y0186099D01*
X0138446Y0186113D01*
X0138360Y0186130D01*
X0138274Y0186152D01*
X0138190Y0186177D01*
X0138106Y0186207D01*
X0138024Y0186239D01*
X0137944Y0186276D01*
X0137865Y0186316D01*
X0137788Y0186360D01*
X0137713Y0186407D01*
X0137641Y0186457D01*
X0137570Y0186511D01*
X0137503Y0186567D01*
X0137437Y0186627D01*
X0137375Y0186689D01*
X0137315Y0186755D01*
X0137259Y0186822D01*
X0137205Y0186893D01*
X0137155Y0186965D01*
X0137108Y0187040D01*
X0137064Y0187117D01*
X0137024Y0187196D01*
X0136987Y0187276D01*
X0136955Y0187358D01*
X0136925Y0187442D01*
X0136900Y0187526D01*
X0136878Y0187612D01*
X0136861Y0187698D01*
X0136847Y0187786D01*
X0136837Y0187874D01*
X0136831Y0187962D01*
X0136829Y0188050D01*
D11*
X0127804Y0180354D02*
X0127804Y0175750D01*
X0127804Y0178052D02*
X0124735Y0178052D01*
X0123200Y0179587D02*
X0122433Y0180354D01*
X0120898Y0180354D01*
X0120131Y0179587D01*
X0120131Y0176517D01*
X0120898Y0175750D01*
X0122433Y0175750D01*
X0123200Y0176517D01*
X0124735Y0175750D02*
X0124735Y0180354D01*
X0118596Y0180354D02*
X0115527Y0180354D01*
X0113992Y0180354D02*
X0112458Y0180354D01*
X0113225Y0180354D02*
X0113225Y0175750D01*
X0112458Y0175750D02*
X0113992Y0175750D01*
X0117062Y0175750D02*
X0117062Y0180354D01*
X0110923Y0180354D02*
X0110923Y0175750D01*
X0109389Y0177285D01*
X0107854Y0175750D01*
X0107854Y0180354D01*
X0106319Y0179587D02*
X0105552Y0180354D01*
X0104017Y0180354D01*
X0103250Y0179587D01*
X0103250Y0178819D01*
X0104017Y0178052D01*
X0105552Y0178052D01*
X0106319Y0177285D01*
X0106319Y0176517D01*
X0105552Y0175750D01*
X0104017Y0175750D01*
X0103250Y0176517D01*
X0153453Y0163792D02*
X0153453Y0161491D01*
X0158057Y0161491D01*
X0158057Y0163792D01*
X0157289Y0164560D01*
X0156522Y0164560D01*
X0155755Y0163792D01*
X0155755Y0161491D01*
X0156522Y0159956D02*
X0155755Y0159189D01*
X0155755Y0157654D01*
X0154987Y0156887D01*
X0154220Y0156887D01*
X0153453Y0157654D01*
X0153453Y0159189D01*
X0154220Y0159956D01*
X0156522Y0159956D02*
X0157289Y0159956D01*
X0158057Y0159189D01*
X0158057Y0157654D01*
X0157289Y0156887D01*
X0157289Y0155352D02*
X0153453Y0155352D01*
X0153453Y0152283D02*
X0157289Y0152283D01*
X0158057Y0153050D01*
X0158057Y0154585D01*
X0157289Y0155352D01*
X0155755Y0163792D02*
X0154987Y0164560D01*
X0154220Y0164560D01*
X0153453Y0163792D01*
X0173250Y0139104D02*
X0175552Y0139104D01*
X0176319Y0138337D01*
X0176319Y0137569D01*
X0175552Y0136802D01*
X0173250Y0136802D01*
X0173250Y0134500D02*
X0173250Y0139104D01*
X0175552Y0136802D02*
X0176319Y0136035D01*
X0176319Y0135267D01*
X0175552Y0134500D01*
X0173250Y0134500D01*
X0177854Y0134500D02*
X0180923Y0134500D01*
X0179389Y0134500D02*
X0179389Y0139104D01*
X0177854Y0137569D01*
X0182458Y0136802D02*
X0183992Y0137569D01*
X0184760Y0137569D01*
X0185527Y0136802D01*
X0185527Y0135267D01*
X0184760Y0134500D01*
X0183225Y0134500D01*
X0182458Y0135267D01*
X0182458Y0136802D02*
X0182458Y0139104D01*
X0185527Y0139104D01*
X0184760Y0129104D02*
X0182458Y0126802D01*
X0185527Y0126802D01*
X0184760Y0124500D02*
X0184760Y0129104D01*
X0179389Y0129104D02*
X0179389Y0124500D01*
X0180923Y0124500D02*
X0177854Y0124500D01*
X0176319Y0125267D02*
X0175552Y0124500D01*
X0173250Y0124500D01*
X0173250Y0129104D01*
X0175552Y0129104D01*
X0176319Y0128337D01*
X0176319Y0127569D01*
X0175552Y0126802D01*
X0173250Y0126802D01*
X0175552Y0126802D02*
X0176319Y0126035D01*
X0176319Y0125267D01*
X0177854Y0127569D02*
X0179389Y0129104D01*
X0179389Y0119104D02*
X0179389Y0114500D01*
X0180923Y0114500D02*
X0177854Y0114500D01*
X0176319Y0115267D02*
X0175552Y0114500D01*
X0173250Y0114500D01*
X0173250Y0119104D01*
X0175552Y0119104D01*
X0176319Y0118337D01*
X0176319Y0117569D01*
X0175552Y0116802D01*
X0173250Y0116802D01*
X0175552Y0116802D02*
X0176319Y0116035D01*
X0176319Y0115267D01*
X0177854Y0117569D02*
X0179389Y0119104D01*
X0182458Y0118337D02*
X0183225Y0119104D01*
X0184760Y0119104D01*
X0185527Y0118337D01*
X0185527Y0117569D01*
X0184760Y0116802D01*
X0185527Y0116035D01*
X0185527Y0115267D01*
X0184760Y0114500D01*
X0183225Y0114500D01*
X0182458Y0115267D01*
X0183992Y0116802D02*
X0184760Y0116802D01*
X0180156Y0109104D02*
X0178621Y0109104D01*
X0177854Y0108337D01*
X0177854Y0107569D01*
X0178621Y0106802D01*
X0180923Y0106802D01*
X0180923Y0105267D02*
X0180923Y0108337D01*
X0180156Y0109104D01*
X0176319Y0108337D02*
X0176319Y0107569D01*
X0175552Y0106802D01*
X0173250Y0106802D01*
X0173250Y0104500D02*
X0173250Y0109104D01*
X0175552Y0109104D01*
X0176319Y0108337D01*
X0175552Y0106802D02*
X0176319Y0106035D01*
X0176319Y0105267D01*
X0175552Y0104500D01*
X0173250Y0104500D01*
X0177854Y0105267D02*
X0178621Y0104500D01*
X0180156Y0104500D01*
X0180923Y0105267D01*
X0180156Y0099104D02*
X0180923Y0098337D01*
X0180923Y0097569D01*
X0180156Y0096802D01*
X0178621Y0096802D01*
X0177854Y0097569D01*
X0177854Y0098337D01*
X0178621Y0099104D01*
X0180156Y0099104D01*
X0180156Y0096802D02*
X0180923Y0096035D01*
X0180923Y0095267D01*
X0180156Y0094500D01*
X0178621Y0094500D01*
X0177854Y0095267D01*
X0177854Y0096035D01*
X0178621Y0096802D01*
X0176319Y0097569D02*
X0175552Y0096802D01*
X0173250Y0096802D01*
X0173250Y0094500D02*
X0173250Y0099104D01*
X0175552Y0099104D01*
X0176319Y0098337D01*
X0176319Y0097569D01*
X0175552Y0096802D02*
X0176319Y0096035D01*
X0176319Y0095267D01*
X0175552Y0094500D01*
X0173250Y0094500D01*
X0173250Y0089104D02*
X0175552Y0089104D01*
X0176319Y0088337D01*
X0176319Y0087569D01*
X0175552Y0086802D01*
X0173250Y0086802D01*
X0173250Y0084500D02*
X0173250Y0089104D01*
X0175552Y0086802D02*
X0176319Y0086035D01*
X0176319Y0085267D01*
X0175552Y0084500D01*
X0173250Y0084500D01*
X0177854Y0084500D02*
X0177854Y0085267D01*
X0180923Y0088337D01*
X0180923Y0089104D01*
X0177854Y0089104D01*
X0177854Y0079104D02*
X0177854Y0076035D01*
X0179389Y0074500D01*
X0180923Y0076035D01*
X0180923Y0079104D01*
X0176319Y0079104D02*
X0173250Y0079104D01*
X0173250Y0076802D01*
X0174785Y0077569D01*
X0175552Y0077569D01*
X0176319Y0076802D01*
X0176319Y0075267D01*
X0175552Y0074500D01*
X0174017Y0074500D01*
X0173250Y0075267D01*
X0174017Y0069104D02*
X0173250Y0068337D01*
X0173250Y0065267D01*
X0174017Y0064500D01*
X0175552Y0064500D01*
X0176319Y0065267D01*
X0176319Y0066802D01*
X0174785Y0066802D01*
X0176319Y0068337D02*
X0175552Y0069104D01*
X0174017Y0069104D01*
X0177854Y0069104D02*
X0177854Y0064500D01*
X0180923Y0064500D02*
X0177854Y0069104D01*
X0180923Y0069104D02*
X0180923Y0064500D01*
X0182458Y0064500D02*
X0184760Y0064500D01*
X0185527Y0065267D01*
X0185527Y0068337D01*
X0184760Y0069104D01*
X0182458Y0069104D01*
X0182458Y0064500D01*
X0174648Y0022371D02*
X0174648Y0021604D01*
X0174648Y0020069D02*
X0173881Y0020069D01*
X0174648Y0020069D02*
X0174648Y0017000D01*
X0173881Y0017000D02*
X0175416Y0017000D01*
X0176950Y0017000D02*
X0176950Y0020069D01*
X0179252Y0020069D01*
X0180020Y0019302D01*
X0180020Y0017000D01*
X0181554Y0011604D02*
X0180787Y0010837D01*
X0181554Y0011604D02*
X0183089Y0011604D01*
X0183856Y0010837D01*
X0183856Y0010069D01*
X0180787Y0007000D01*
X0183856Y0007000D01*
X0185391Y0007767D02*
X0188460Y0010837D01*
X0188460Y0007767D01*
X0187693Y0007000D01*
X0186158Y0007000D01*
X0185391Y0007767D01*
X0185391Y0010837D01*
X0186158Y0011604D01*
X0187693Y0011604D01*
X0188460Y0010837D01*
X0189995Y0010069D02*
X0191529Y0011604D01*
X0191529Y0007000D01*
X0189995Y0007000D02*
X0193064Y0007000D01*
X0194599Y0007767D02*
X0194599Y0009302D01*
X0196901Y0009302D01*
X0197668Y0008535D01*
X0197668Y0007767D01*
X0196901Y0007000D01*
X0195366Y0007000D01*
X0194599Y0007767D01*
X0194599Y0009302D02*
X0196133Y0010837D01*
X0197668Y0011604D01*
X0198435Y0017000D02*
X0198435Y0019302D01*
X0197668Y0020069D01*
X0195366Y0020069D01*
X0195366Y0017000D01*
X0193831Y0017000D02*
X0193831Y0019302D01*
X0193064Y0020069D01*
X0191529Y0020069D01*
X0191529Y0018535D02*
X0193831Y0018535D01*
X0193831Y0017000D02*
X0191529Y0017000D01*
X0190762Y0017767D01*
X0191529Y0018535D01*
X0189227Y0019302D02*
X0186158Y0019302D01*
X0186158Y0017000D02*
X0186158Y0021604D01*
X0189227Y0021604D02*
X0189227Y0017000D01*
X0174648Y0007000D02*
X0173114Y0007000D01*
X0173881Y0007000D02*
X0173881Y0011604D01*
X0173114Y0011604D01*
X0170812Y0011604D02*
X0170812Y0012371D01*
X0170812Y0010069D02*
X0170044Y0010069D01*
X0170812Y0010069D02*
X0170812Y0007000D01*
X0171579Y0007000D02*
X0170044Y0007000D01*
X0166208Y0007000D02*
X0166208Y0010069D01*
X0166208Y0008535D02*
X0167742Y0010069D01*
X0168510Y0010069D01*
X0164673Y0009302D02*
X0164673Y0007767D01*
X0163906Y0007000D01*
X0161604Y0007000D01*
X0161604Y0005465D02*
X0161604Y0010069D01*
X0163906Y0010069D01*
X0164673Y0009302D01*
X0160069Y0009302D02*
X0157000Y0009302D01*
X0157000Y0010069D02*
X0157000Y0007000D01*
X0157000Y0010069D02*
X0158535Y0011604D01*
X0160069Y0010069D01*
X0160069Y0007000D01*
X0160069Y0017000D02*
X0160069Y0020069D01*
X0158535Y0021604D01*
X0157000Y0020069D01*
X0157000Y0017000D01*
X0157000Y0019302D02*
X0160069Y0019302D01*
X0161604Y0020069D02*
X0161604Y0017767D01*
X0162371Y0017000D01*
X0164673Y0017000D01*
X0164673Y0020069D01*
X0166208Y0019302D02*
X0166975Y0020069D01*
X0169277Y0020069D01*
X0170812Y0020069D02*
X0172346Y0020069D01*
X0171579Y0020837D02*
X0171579Y0017767D01*
X0172346Y0017000D01*
X0169277Y0017767D02*
X0168510Y0017000D01*
X0166208Y0017000D01*
X0166975Y0018535D02*
X0166208Y0019302D01*
X0166975Y0018535D02*
X0168510Y0018535D01*
X0169277Y0017767D01*
X0027829Y0076035D02*
X0027829Y0079104D01*
X0024760Y0079104D02*
X0024760Y0076035D01*
X0026294Y0074500D01*
X0027829Y0076035D01*
X0023225Y0076035D02*
X0023225Y0075267D01*
X0022458Y0074500D01*
X0020923Y0074500D01*
X0020156Y0075267D01*
X0018621Y0075267D02*
X0018621Y0074500D01*
X0017854Y0074500D01*
X0017854Y0075267D01*
X0018621Y0075267D01*
X0016319Y0075267D02*
X0016319Y0076035D01*
X0015552Y0076802D01*
X0014785Y0076802D01*
X0015552Y0076802D02*
X0016319Y0077569D01*
X0016319Y0078337D01*
X0015552Y0079104D01*
X0014017Y0079104D01*
X0013250Y0078337D01*
X0013250Y0075267D02*
X0014017Y0074500D01*
X0015552Y0074500D01*
X0016319Y0075267D01*
X0020156Y0078337D02*
X0020923Y0079104D01*
X0022458Y0079104D01*
X0023225Y0078337D01*
X0023225Y0077569D01*
X0022458Y0076802D01*
X0023225Y0076035D01*
X0022458Y0076802D02*
X0021691Y0076802D01*
X0022458Y0069104D02*
X0024760Y0069104D01*
X0025527Y0068337D01*
X0025527Y0065267D01*
X0024760Y0064500D01*
X0022458Y0064500D01*
X0022458Y0069104D01*
X0020923Y0069104D02*
X0020923Y0064500D01*
X0017854Y0069104D01*
X0017854Y0064500D01*
X0016319Y0065267D02*
X0016319Y0066802D01*
X0014785Y0066802D01*
X0016319Y0068337D02*
X0015552Y0069104D01*
X0014017Y0069104D01*
X0013250Y0068337D01*
X0013250Y0065267D01*
X0014017Y0064500D01*
X0015552Y0064500D01*
X0016319Y0065267D01*
X0016319Y0084500D02*
X0016319Y0087569D01*
X0014785Y0089104D01*
X0013250Y0087569D01*
X0013250Y0084500D01*
X0013250Y0086802D02*
X0016319Y0086802D01*
X0017854Y0086802D02*
X0020923Y0086802D01*
X0020156Y0084500D02*
X0020156Y0089104D01*
X0017854Y0086802D01*
X0020156Y0094500D02*
X0020156Y0099104D01*
X0017854Y0096802D01*
X0020923Y0096802D01*
X0016319Y0097569D02*
X0015552Y0096802D01*
X0013250Y0096802D01*
X0013250Y0094500D02*
X0013250Y0099104D01*
X0015552Y0099104D01*
X0016319Y0098337D01*
X0016319Y0097569D01*
X0015552Y0096802D02*
X0016319Y0096035D01*
X0016319Y0095267D01*
X0015552Y0094500D01*
X0013250Y0094500D01*
X0013250Y0104500D02*
X0015552Y0104500D01*
X0016319Y0105267D01*
X0016319Y0106035D01*
X0015552Y0106802D01*
X0013250Y0106802D01*
X0013250Y0104500D02*
X0013250Y0109104D01*
X0015552Y0109104D01*
X0016319Y0108337D01*
X0016319Y0107569D01*
X0015552Y0106802D01*
X0017854Y0108337D02*
X0018621Y0109104D01*
X0020156Y0109104D01*
X0020923Y0108337D01*
X0020923Y0107569D01*
X0020156Y0106802D01*
X0020923Y0106035D01*
X0020923Y0105267D01*
X0020156Y0104500D01*
X0018621Y0104500D01*
X0017854Y0105267D01*
X0019389Y0106802D02*
X0020156Y0106802D01*
X0020923Y0114500D02*
X0017854Y0114500D01*
X0020923Y0117569D01*
X0020923Y0118337D01*
X0020156Y0119104D01*
X0018621Y0119104D01*
X0017854Y0118337D01*
X0016319Y0118337D02*
X0016319Y0117569D01*
X0015552Y0116802D01*
X0013250Y0116802D01*
X0013250Y0119104D02*
X0015552Y0119104D01*
X0016319Y0118337D01*
X0015552Y0116802D02*
X0016319Y0116035D01*
X0016319Y0115267D01*
X0015552Y0114500D01*
X0013250Y0114500D01*
X0013250Y0119104D01*
X0013250Y0124500D02*
X0013250Y0127569D01*
X0014785Y0129104D01*
X0016319Y0127569D01*
X0016319Y0124500D01*
X0017854Y0124500D02*
X0020923Y0124500D01*
X0019389Y0124500D02*
X0019389Y0129104D01*
X0017854Y0127569D01*
X0016319Y0126802D02*
X0013250Y0126802D01*
X0013250Y0134500D02*
X0013250Y0137569D01*
X0014785Y0139104D01*
X0016319Y0137569D01*
X0016319Y0134500D01*
X0017854Y0135267D02*
X0020923Y0138337D01*
X0020923Y0135267D01*
X0020156Y0134500D01*
X0018621Y0134500D01*
X0017854Y0135267D01*
X0017854Y0138337D01*
X0018621Y0139104D01*
X0020156Y0139104D01*
X0020923Y0138337D01*
X0016319Y0136802D02*
X0013250Y0136802D01*
D12*
X0055550Y0180550D02*
X0058050Y0180550D01*
X0056800Y0181800D01*
X0055550Y0180550D01*
X0055833Y0180833D02*
X0057767Y0180833D01*
D13*
X0059300Y0183050D02*
X0054300Y0183050D01*
X0051800Y0185550D01*
X0049300Y0183050D01*
X0044300Y0183050D01*
X0041800Y0185550D01*
X0039300Y0183050D01*
X0034300Y0183050D01*
X0031800Y0185550D01*
X0029300Y0183050D01*
X0024300Y0183050D01*
X0021800Y0185550D01*
X0019300Y0183050D01*
X0014300Y0183050D01*
X0011800Y0185550D01*
X0009300Y0183050D01*
X0004300Y0183050D01*
X0001800Y0185550D01*
X0001800Y0190550D01*
X0004300Y0193050D01*
X0009300Y0193050D01*
X0011800Y0190550D01*
X0014300Y0193050D01*
X0019300Y0193050D01*
X0021800Y0190550D01*
X0024300Y0193050D01*
X0029300Y0193050D01*
X0031800Y0190550D01*
X0034300Y0193050D01*
X0039300Y0193050D01*
X0041800Y0190550D01*
X0044300Y0193050D01*
X0049300Y0193050D01*
X0051800Y0190550D01*
X0054300Y0193050D01*
X0059300Y0193050D01*
X0061800Y0190550D01*
X0061800Y0185550D01*
X0059300Y0183050D01*
X0070550Y0185550D02*
X0070550Y0190550D01*
X0073050Y0193050D01*
X0078050Y0193050D01*
X0080550Y0190550D01*
X0083050Y0193050D01*
X0088050Y0193050D01*
X0090550Y0190550D01*
X0093050Y0193050D01*
X0098050Y0193050D01*
X0100550Y0190550D01*
X0100550Y0185550D01*
X0098050Y0183050D01*
X0093050Y0183050D01*
X0090550Y0185550D01*
X0088050Y0183050D01*
X0083050Y0183050D01*
X0080550Y0185550D01*
X0078050Y0183050D01*
X0073050Y0183050D01*
X0070550Y0185550D01*
X0011800Y0139300D02*
X0011800Y0134300D01*
X0009300Y0131800D01*
X0011800Y0129300D01*
X0011800Y0124300D01*
X0009300Y0121800D01*
X0011800Y0119300D01*
X0011800Y0114300D01*
X0009300Y0111800D01*
X0011800Y0109300D01*
X0011800Y0104300D01*
X0009300Y0101800D01*
X0011800Y0099300D01*
X0011800Y0094300D01*
X0009300Y0091800D01*
X0011800Y0089300D01*
X0011800Y0084300D01*
X0009300Y0081800D01*
X0011800Y0079300D01*
X0011800Y0074300D01*
X0009300Y0071800D01*
X0011800Y0069300D01*
X0011800Y0064300D01*
X0009300Y0061800D01*
X0004300Y0061800D01*
X0001800Y0064300D01*
X0001800Y0069300D01*
X0004300Y0071800D01*
X0001800Y0074300D01*
X0001800Y0079300D01*
X0004300Y0081800D01*
X0001800Y0084300D01*
X0001800Y0089300D01*
X0004300Y0091800D01*
X0001800Y0094300D01*
X0001800Y0099300D01*
X0004300Y0101800D01*
X0001800Y0104300D01*
X0001800Y0109300D01*
X0004300Y0111800D01*
X0001800Y0114300D01*
X0001800Y0119300D01*
X0004300Y0121800D01*
X0001800Y0124300D01*
X0001800Y0129300D01*
X0004300Y0131800D01*
X0001800Y0134300D01*
X0001800Y0139300D01*
X0004300Y0141800D01*
X0009300Y0141800D01*
X0011800Y0139300D01*
X0049300Y0096800D02*
X0054300Y0096800D01*
X0056800Y0094300D01*
X0056800Y0089300D01*
X0054300Y0086800D01*
X0056800Y0084300D01*
X0056800Y0079300D01*
X0054300Y0076800D01*
X0056800Y0074300D01*
X0056800Y0069300D01*
X0054300Y0066800D01*
X0049300Y0066800D01*
X0046800Y0069300D01*
X0046800Y0074300D01*
X0049300Y0076800D01*
X0046800Y0079300D01*
X0046800Y0084300D01*
X0049300Y0086800D01*
X0046800Y0089300D01*
X0046800Y0094300D01*
X0049300Y0096800D01*
X0050550Y0041800D02*
X0045550Y0041800D01*
X0043050Y0039300D01*
X0040550Y0041800D01*
X0035550Y0041800D01*
X0033050Y0039300D01*
X0033050Y0034300D01*
X0035550Y0031800D01*
X0040550Y0031800D01*
X0043050Y0034300D01*
X0045550Y0031800D01*
X0050550Y0031800D01*
X0053050Y0034300D01*
X0055550Y0031800D01*
X0060550Y0031800D01*
X0063050Y0034300D01*
X0063050Y0039300D01*
X0060550Y0041800D01*
X0055550Y0041800D01*
X0053050Y0039300D01*
X0050550Y0041800D01*
X0189300Y0064300D02*
X0189300Y0069300D01*
X0191800Y0071800D01*
X0189300Y0074300D01*
X0189300Y0079300D01*
X0191800Y0081800D01*
X0189300Y0084300D01*
X0189300Y0089300D01*
X0191800Y0091800D01*
X0189300Y0094300D01*
X0189300Y0099300D01*
X0191800Y0101800D01*
X0189300Y0104300D01*
X0189300Y0109300D01*
X0191800Y0111800D01*
X0189300Y0114300D01*
X0189300Y0119300D01*
X0191800Y0121800D01*
X0189300Y0124300D01*
X0189300Y0129300D01*
X0191800Y0131800D01*
X0189300Y0134300D01*
X0189300Y0139300D01*
X0191800Y0141800D01*
X0196800Y0141800D01*
X0199300Y0139300D01*
X0199300Y0134300D01*
X0196800Y0131800D01*
X0199300Y0129300D01*
X0199300Y0124300D01*
X0196800Y0121800D01*
X0199300Y0119300D01*
X0199300Y0114300D01*
X0196800Y0111800D01*
X0199300Y0109300D01*
X0199300Y0104300D01*
X0196800Y0101800D01*
X0199300Y0099300D01*
X0199300Y0094300D01*
X0196800Y0091800D01*
X0199300Y0089300D01*
X0199300Y0084300D01*
X0196800Y0081800D01*
X0199300Y0079300D01*
X0199300Y0074300D01*
X0196800Y0071800D01*
X0199300Y0069300D01*
X0199300Y0064300D01*
X0196800Y0061800D01*
X0191800Y0061800D01*
X0189300Y0064300D01*
D14*
X0161113Y0030554D02*
X0161113Y0026050D01*
X0159612Y0026050D02*
X0162614Y0026050D01*
X0159612Y0029053D02*
X0161113Y0030554D01*
X0158010Y0029803D02*
X0157260Y0030554D01*
X0155008Y0030554D01*
X0155008Y0026050D01*
X0157260Y0026050D01*
X0158010Y0026801D01*
X0158010Y0029803D01*
X0153406Y0030554D02*
X0150404Y0030554D01*
X0150404Y0026050D01*
X0153406Y0026050D01*
X0151905Y0028302D02*
X0150404Y0028302D01*
X0148803Y0026050D02*
X0145800Y0026050D01*
X0145800Y0030554D01*
X0145508Y0034850D02*
X0144758Y0035601D01*
X0147760Y0038603D01*
X0147760Y0035601D01*
X0147010Y0034850D01*
X0145508Y0034850D01*
X0144758Y0035601D02*
X0144758Y0038603D01*
X0145508Y0039354D01*
X0147010Y0039354D01*
X0147760Y0038603D01*
X0143156Y0038603D02*
X0143156Y0037853D01*
X0142406Y0037102D01*
X0143156Y0036351D01*
X0143156Y0035601D01*
X0142406Y0034850D01*
X0140905Y0034850D01*
X0140154Y0035601D01*
X0138553Y0035601D02*
X0137802Y0034850D01*
X0136301Y0034850D01*
X0135550Y0035601D01*
X0137051Y0037102D02*
X0137802Y0037102D01*
X0138553Y0036351D01*
X0138553Y0035601D01*
X0137802Y0037102D02*
X0138553Y0037853D01*
X0138553Y0038603D01*
X0137802Y0039354D01*
X0136301Y0039354D01*
X0135550Y0038603D01*
X0133406Y0038803D02*
X0132656Y0039554D01*
X0131155Y0039554D01*
X0130404Y0038803D01*
X0128803Y0038803D02*
X0128052Y0039554D01*
X0125800Y0039554D01*
X0125800Y0035050D01*
X0125800Y0036551D02*
X0128052Y0036551D01*
X0128803Y0037302D01*
X0128803Y0038803D01*
X0127301Y0036551D02*
X0128803Y0035050D01*
X0130404Y0035050D02*
X0133406Y0038053D01*
X0133406Y0038803D01*
X0133406Y0035050D02*
X0130404Y0035050D01*
X0140154Y0038603D02*
X0140905Y0039354D01*
X0142406Y0039354D01*
X0143156Y0038603D01*
X0142406Y0037102D02*
X0141655Y0037102D01*
X0129050Y0055134D02*
X0129050Y0058137D01*
X0129050Y0056636D02*
X0124546Y0056636D01*
X0126047Y0055134D01*
X0125297Y0059738D02*
X0124546Y0060489D01*
X0124546Y0061990D01*
X0125297Y0062741D01*
X0128299Y0059738D01*
X0129050Y0060489D01*
X0129050Y0061990D01*
X0128299Y0062741D01*
X0125297Y0062741D01*
X0126047Y0064342D02*
X0128299Y0064342D01*
X0129050Y0065093D01*
X0129050Y0067345D01*
X0126047Y0067345D01*
X0126798Y0068946D02*
X0126798Y0070447D01*
X0124546Y0068946D02*
X0124546Y0071949D01*
X0124546Y0068946D02*
X0129050Y0068946D01*
X0135046Y0070447D02*
X0139550Y0070447D01*
X0139550Y0068946D02*
X0139550Y0071949D01*
X0136547Y0068946D02*
X0135046Y0070447D01*
X0135797Y0067345D02*
X0135046Y0066594D01*
X0135046Y0065093D01*
X0135797Y0064342D01*
X0138799Y0064342D01*
X0139550Y0065093D01*
X0139550Y0066594D01*
X0138799Y0067345D01*
X0128299Y0059738D02*
X0125297Y0059738D01*
X0104050Y0073550D02*
X0099546Y0073550D01*
X0099546Y0075802D01*
X0100297Y0076553D01*
X0101798Y0076553D01*
X0102549Y0075802D01*
X0102549Y0073550D01*
X0104050Y0078154D02*
X0104050Y0079655D01*
X0104050Y0078905D02*
X0099546Y0078905D01*
X0099546Y0079655D02*
X0099546Y0078154D01*
X0100297Y0081223D02*
X0103299Y0081223D01*
X0104050Y0081974D01*
X0104050Y0083475D01*
X0103299Y0084226D01*
X0103299Y0085827D02*
X0104050Y0086578D01*
X0104050Y0088079D01*
X0103299Y0088830D01*
X0102549Y0088830D01*
X0101798Y0088079D01*
X0101798Y0087328D01*
X0101798Y0088079D02*
X0101047Y0088830D01*
X0100297Y0088830D01*
X0099546Y0088079D01*
X0099546Y0086578D01*
X0100297Y0085827D01*
X0100297Y0084226D02*
X0099546Y0083475D01*
X0099546Y0081974D01*
X0100297Y0081223D01*
X0100297Y0090431D02*
X0099546Y0091182D01*
X0099546Y0092683D01*
X0100297Y0093434D01*
X0101047Y0093434D01*
X0104050Y0090431D01*
X0104050Y0093434D01*
X0104050Y0095035D02*
X0099546Y0095035D01*
X0101047Y0096536D01*
X0099546Y0098038D01*
X0104050Y0098038D01*
X0104050Y0099639D02*
X0099546Y0102641D01*
X0100297Y0104243D02*
X0099546Y0104993D01*
X0099546Y0106495D01*
X0100297Y0107245D01*
X0101047Y0107245D01*
X0104050Y0104243D01*
X0104050Y0107245D01*
X0103299Y0108847D02*
X0104050Y0109597D01*
X0104050Y0111099D01*
X0103299Y0111849D01*
X0101798Y0111849D01*
X0101047Y0111099D01*
X0101047Y0110348D01*
X0101798Y0108847D01*
X0099546Y0108847D01*
X0099546Y0111849D01*
X0100297Y0113451D02*
X0099546Y0114201D01*
X0099546Y0115703D01*
X0100297Y0116453D01*
X0103299Y0113451D01*
X0104050Y0114201D01*
X0104050Y0115703D01*
X0103299Y0116453D01*
X0100297Y0116453D01*
X0099546Y0118055D02*
X0099546Y0121057D01*
X0101047Y0122659D02*
X0099546Y0124160D01*
X0104050Y0124160D01*
X0104050Y0122659D02*
X0104050Y0125661D01*
X0104050Y0127262D02*
X0101047Y0130265D01*
X0100297Y0130265D01*
X0099546Y0129514D01*
X0099546Y0128013D01*
X0100297Y0127262D01*
X0104050Y0127262D02*
X0104050Y0130265D01*
X0103299Y0131866D02*
X0102549Y0131866D01*
X0101798Y0132617D01*
X0101798Y0134118D01*
X0102549Y0134869D01*
X0103299Y0134869D01*
X0104050Y0134118D01*
X0104050Y0132617D01*
X0103299Y0131866D01*
X0101798Y0132617D02*
X0101047Y0131866D01*
X0100297Y0131866D01*
X0099546Y0132617D01*
X0099546Y0134118D01*
X0100297Y0134869D01*
X0101047Y0134869D01*
X0101798Y0134118D01*
X0101798Y0136470D02*
X0101798Y0138722D01*
X0102549Y0139473D01*
X0103299Y0139473D01*
X0104050Y0138722D01*
X0104050Y0136470D01*
X0099546Y0136470D01*
X0099546Y0138722D01*
X0100297Y0139473D01*
X0101047Y0139473D01*
X0101798Y0138722D01*
X0101798Y0119556D02*
X0101798Y0118055D01*
X0104050Y0118055D02*
X0099546Y0118055D01*
X0100297Y0113451D02*
X0103299Y0113451D01*
X0104050Y0102641D02*
X0099546Y0099639D01*
X0072050Y0071164D02*
X0067546Y0071164D01*
X0067546Y0074166D01*
X0066050Y0075801D02*
X0066050Y0077302D01*
X0065299Y0078053D01*
X0063798Y0079654D02*
X0063798Y0082656D01*
X0061546Y0081906D02*
X0063798Y0079654D01*
X0062297Y0078053D02*
X0061546Y0077302D01*
X0061546Y0075801D01*
X0062297Y0075050D01*
X0065299Y0075050D01*
X0066050Y0075801D01*
X0069798Y0072665D02*
X0069798Y0071164D01*
X0069047Y0069562D02*
X0072050Y0069562D01*
X0072050Y0067310D01*
X0071299Y0066560D01*
X0069047Y0066560D01*
X0072050Y0064958D02*
X0072050Y0061956D01*
X0072050Y0063457D02*
X0067546Y0063457D01*
X0069047Y0061956D01*
X0071299Y0060405D02*
X0071299Y0059654D01*
X0072050Y0059654D01*
X0072050Y0060405D01*
X0071299Y0060405D01*
X0071299Y0058053D02*
X0068297Y0058053D01*
X0071299Y0055050D01*
X0072050Y0055801D01*
X0072050Y0057302D01*
X0071299Y0058053D01*
X0071299Y0055050D02*
X0068297Y0055050D01*
X0067546Y0055801D01*
X0067546Y0057302D01*
X0068297Y0058053D01*
X0049550Y0059698D02*
X0045046Y0059698D01*
X0047298Y0057446D01*
X0047298Y0060449D01*
X0047298Y0055845D02*
X0045797Y0055845D01*
X0045046Y0055094D01*
X0045046Y0052842D01*
X0049550Y0052842D01*
X0048049Y0052842D02*
X0048049Y0055094D01*
X0047298Y0055845D01*
X0048049Y0054343D02*
X0049550Y0055845D01*
X0033100Y0059256D02*
X0033100Y0062258D01*
X0033100Y0060757D02*
X0028596Y0060757D01*
X0030097Y0059256D01*
X0029347Y0063859D02*
X0028596Y0064610D01*
X0028596Y0066111D01*
X0029347Y0066862D01*
X0032349Y0063859D01*
X0033100Y0064610D01*
X0033100Y0066111D01*
X0032349Y0066862D01*
X0029347Y0066862D01*
X0028596Y0068463D02*
X0033100Y0068463D01*
X0031599Y0068463D02*
X0033100Y0070715D01*
X0031599Y0068463D02*
X0030097Y0070715D01*
X0029347Y0063859D02*
X0032349Y0063859D01*
X0040597Y0081750D02*
X0043599Y0081750D01*
X0044350Y0082501D01*
X0044350Y0084002D01*
X0043599Y0084753D01*
X0040597Y0084753D01*
X0039846Y0084002D01*
X0039846Y0082501D01*
X0040597Y0081750D01*
X0040597Y0086354D02*
X0039846Y0087105D01*
X0039846Y0088606D01*
X0040597Y0089356D01*
X0040597Y0090958D02*
X0043599Y0090958D01*
X0044350Y0091708D01*
X0044350Y0093210D01*
X0043599Y0093960D01*
X0044350Y0095562D02*
X0044350Y0097063D01*
X0044350Y0096312D02*
X0039846Y0096312D01*
X0039846Y0095562D02*
X0039846Y0097063D01*
X0039846Y0098631D02*
X0044350Y0098631D01*
X0044350Y0101634D01*
X0040597Y0093960D02*
X0039846Y0093210D01*
X0039846Y0091708D01*
X0040597Y0090958D01*
X0042849Y0089356D02*
X0042098Y0088606D01*
X0042098Y0087105D01*
X0041347Y0086354D01*
X0040597Y0086354D01*
X0043599Y0086354D02*
X0044350Y0087105D01*
X0044350Y0088606D01*
X0043599Y0089356D01*
X0042849Y0089356D01*
X0061546Y0081906D02*
X0066050Y0081906D01*
X0073801Y0039554D02*
X0073050Y0038803D01*
X0073050Y0035801D01*
X0073801Y0035050D01*
X0075302Y0035050D01*
X0076053Y0035801D01*
X0077654Y0035050D02*
X0080656Y0038053D01*
X0080656Y0038803D01*
X0079906Y0039554D01*
X0078405Y0039554D01*
X0077654Y0038803D01*
X0076053Y0038803D02*
X0075302Y0039554D01*
X0073801Y0039554D01*
X0077654Y0035050D02*
X0080656Y0035050D01*
X0082050Y0028054D02*
X0082050Y0023550D01*
X0085053Y0023550D01*
X0086654Y0023550D02*
X0089656Y0023550D01*
X0091258Y0023550D02*
X0093510Y0023550D01*
X0094260Y0024301D01*
X0094260Y0027303D01*
X0093510Y0028054D01*
X0091258Y0028054D01*
X0091258Y0023550D01*
X0088155Y0025802D02*
X0086654Y0025802D01*
X0086654Y0028054D02*
X0086654Y0023550D01*
X0086654Y0028054D02*
X0089656Y0028054D01*
X0095862Y0027303D02*
X0096612Y0028054D01*
X0098114Y0028054D01*
X0098864Y0027303D01*
X0098864Y0026553D01*
X0095862Y0023550D01*
X0098864Y0023550D01*
X0081114Y0017804D02*
X0078112Y0017804D01*
X0078112Y0013300D01*
X0076510Y0013300D02*
X0076510Y0016303D01*
X0078112Y0015552D02*
X0079613Y0015552D01*
X0076510Y0013300D02*
X0074258Y0013300D01*
X0073508Y0014051D01*
X0073508Y0016303D01*
X0071906Y0017053D02*
X0071906Y0014051D01*
X0071156Y0013300D01*
X0069655Y0013300D01*
X0068904Y0014051D01*
X0071906Y0017053D01*
X0071156Y0017804D01*
X0069655Y0017804D01*
X0068904Y0017053D01*
X0068904Y0014051D01*
X0067303Y0013300D02*
X0064300Y0013300D01*
X0065801Y0013300D02*
X0065801Y0017804D01*
X0064300Y0016303D01*
X0055800Y0016406D02*
X0055800Y0014155D01*
X0055049Y0013404D01*
X0052797Y0013404D01*
X0055800Y0011803D02*
X0055800Y0008800D01*
X0055800Y0010301D02*
X0051296Y0010301D01*
X0052797Y0008800D01*
X0052797Y0016406D02*
X0055800Y0016406D01*
X0055800Y0018008D02*
X0051296Y0018008D01*
X0051296Y0021010D01*
X0053548Y0019509D02*
X0053548Y0018008D01*
X0053668Y0025500D02*
X0052166Y0025500D01*
X0051416Y0026251D01*
X0051416Y0029253D01*
X0052166Y0030004D01*
X0053668Y0030004D01*
X0054418Y0029253D01*
X0054418Y0026251D01*
X0053668Y0025500D01*
X0056020Y0025500D02*
X0056020Y0030004D01*
X0059022Y0025500D01*
X0059022Y0030004D01*
X0060624Y0028503D02*
X0062125Y0030004D01*
X0062125Y0025500D01*
X0060624Y0025500D02*
X0063626Y0025500D01*
X0049814Y0030004D02*
X0046812Y0030004D01*
X0048313Y0030004D02*
X0048313Y0025500D01*
X0043709Y0025500D02*
X0043709Y0030004D01*
X0042208Y0030004D02*
X0045210Y0030004D01*
X0040606Y0030004D02*
X0040606Y0026251D01*
X0039856Y0025500D01*
X0038355Y0025500D01*
X0037604Y0026251D01*
X0037604Y0030004D01*
X0036003Y0029253D02*
X0036003Y0028503D01*
X0035252Y0027752D01*
X0033000Y0027752D01*
X0033000Y0025500D02*
X0033000Y0030004D01*
X0035252Y0030004D01*
X0036003Y0029253D01*
X0035252Y0027752D02*
X0036003Y0027001D01*
X0036003Y0026251D01*
X0035252Y0025500D01*
X0033000Y0025500D01*
X0035296Y0016406D02*
X0036047Y0014905D01*
X0037548Y0013404D01*
X0037548Y0015656D01*
X0038299Y0016406D01*
X0039049Y0016406D01*
X0039800Y0015656D01*
X0039800Y0014155D01*
X0039049Y0013404D01*
X0037548Y0013404D01*
X0036047Y0011803D02*
X0035296Y0011052D01*
X0035296Y0009551D01*
X0036047Y0008800D01*
X0039049Y0008800D01*
X0039800Y0009551D01*
X0039800Y0011052D01*
X0039049Y0011803D01*
X0035176Y0008303D02*
X0034425Y0009054D01*
X0032924Y0009054D01*
X0032174Y0008303D01*
X0030572Y0008303D02*
X0027570Y0005301D01*
X0028320Y0004550D01*
X0029822Y0004550D01*
X0030572Y0005301D01*
X0030572Y0008303D01*
X0029822Y0009054D01*
X0028320Y0009054D01*
X0027570Y0008303D01*
X0027570Y0005301D01*
X0025968Y0008303D02*
X0022966Y0005301D01*
X0022966Y0004550D01*
X0021364Y0004550D02*
X0018362Y0004550D01*
X0019863Y0004550D02*
X0019863Y0009054D01*
X0018362Y0007553D01*
X0016760Y0008303D02*
X0016760Y0006802D01*
X0016010Y0006051D01*
X0013758Y0006051D01*
X0013758Y0004550D02*
X0013758Y0009054D01*
X0016010Y0009054D01*
X0016760Y0008303D01*
X0013554Y0010300D02*
X0030046Y0010300D01*
X0025968Y0009054D02*
X0025968Y0008303D01*
X0025968Y0009054D02*
X0022966Y0009054D01*
X0022927Y0015800D02*
X0020673Y0015800D01*
X0013554Y0010300D02*
X0013401Y0010499D01*
X0013253Y0010701D01*
X0013110Y0010906D01*
X0012972Y0011115D01*
X0012839Y0011327D01*
X0012711Y0011542D01*
X0012589Y0011760D01*
X0012471Y0011981D01*
X0012359Y0012205D01*
X0012252Y0012431D01*
X0012151Y0012660D01*
X0012055Y0012891D01*
X0011964Y0013125D01*
X0011879Y0013360D01*
X0011800Y0013598D01*
X0011727Y0013837D01*
X0011659Y0014078D01*
X0011597Y0014320D01*
X0011541Y0014564D01*
X0011490Y0014810D01*
X0011446Y0015056D01*
X0011407Y0015303D01*
X0011375Y0015551D01*
X0011348Y0015800D01*
X0012927Y0015800D01*
X0011406Y0009054D02*
X0009905Y0009054D01*
X0009154Y0008303D01*
X0009154Y0005301D01*
X0009905Y0004550D01*
X0011406Y0004550D01*
X0012156Y0005301D01*
X0012156Y0008303D02*
X0011406Y0009054D01*
X0007553Y0009054D02*
X0007553Y0004550D01*
X0004550Y0004550D02*
X0004550Y0009054D01*
X0006051Y0007553D01*
X0007553Y0009054D01*
X0030046Y0010300D02*
X0030201Y0010502D01*
X0030351Y0010707D01*
X0030497Y0010916D01*
X0030637Y0011129D01*
X0030772Y0011345D01*
X0030901Y0011564D01*
X0031025Y0011786D01*
X0031144Y0012011D01*
X0031257Y0012239D01*
X0031365Y0012469D01*
X0031467Y0012702D01*
X0031564Y0012938D01*
X0031655Y0013176D01*
X0031740Y0013415D01*
X0031819Y0013657D01*
X0031892Y0013901D01*
X0031959Y0014146D01*
X0032021Y0014393D01*
X0032076Y0014642D01*
X0032125Y0014892D01*
X0032168Y0015142D01*
X0032205Y0015394D01*
X0032236Y0015647D01*
X0032261Y0015900D01*
X0032280Y0016154D01*
X0032293Y0016408D01*
X0032299Y0016662D01*
X0032299Y0016917D01*
X0032293Y0017171D01*
X0032281Y0017426D01*
X0032263Y0017679D01*
X0032239Y0017933D01*
X0032208Y0018185D01*
X0032172Y0018437D01*
X0032129Y0018688D01*
X0032080Y0018938D01*
X0032025Y0019186D01*
X0031964Y0019433D01*
X0031898Y0019679D01*
X0031825Y0019923D01*
X0031746Y0020165D01*
X0031662Y0020405D01*
X0031571Y0020643D01*
X0031475Y0020879D01*
X0031374Y0021112D01*
X0031266Y0021343D01*
X0031154Y0021571D01*
X0031035Y0021796D01*
X0030911Y0022018D01*
X0030782Y0022238D01*
X0030648Y0022454D01*
X0030508Y0022667D01*
X0030363Y0022876D01*
X0030214Y0023082D01*
X0030059Y0023284D01*
X0029899Y0023482D01*
X0029735Y0023676D01*
X0029566Y0023867D01*
X0029393Y0024053D01*
X0029215Y0024235D01*
X0029032Y0024412D01*
X0028846Y0024585D01*
X0028655Y0024754D01*
X0028460Y0024918D01*
X0028261Y0025077D01*
X0028059Y0025231D01*
X0027853Y0025380D01*
X0027643Y0025524D01*
X0027430Y0025663D01*
X0027213Y0025797D01*
X0026994Y0025926D01*
X0026771Y0026049D01*
X0026545Y0026166D01*
X0026317Y0026279D01*
X0026086Y0026385D01*
X0025852Y0026486D01*
X0025616Y0026582D01*
X0025378Y0026671D01*
X0025138Y0026755D01*
X0024896Y0026833D01*
X0018704Y0026833D02*
X0018460Y0026755D01*
X0018218Y0026670D01*
X0017979Y0026580D01*
X0017741Y0026484D01*
X0017506Y0026382D01*
X0017273Y0026274D01*
X0017043Y0026161D01*
X0016816Y0026042D01*
X0016592Y0025918D01*
X0016371Y0025788D01*
X0016154Y0025653D01*
X0015939Y0025512D01*
X0015728Y0025366D01*
X0015521Y0025216D01*
X0015318Y0025060D01*
X0015118Y0024899D01*
X0014922Y0024734D01*
X0014731Y0024564D01*
X0014543Y0024389D01*
X0014360Y0024209D01*
X0014182Y0024026D01*
X0014007Y0023837D01*
X0013838Y0023645D01*
X0013673Y0023449D01*
X0013513Y0023248D01*
X0013359Y0023044D01*
X0013209Y0022836D01*
X0013064Y0022625D01*
X0012924Y0022410D01*
X0012790Y0022192D01*
X0012661Y0021970D01*
X0012538Y0021746D01*
X0012420Y0021518D01*
X0012307Y0021288D01*
X0012201Y0021055D01*
X0012100Y0020819D01*
X0012004Y0020581D01*
X0011915Y0020341D01*
X0011832Y0020099D01*
X0011754Y0019854D01*
X0011683Y0019608D01*
X0011617Y0019360D01*
X0011558Y0019111D01*
X0011504Y0018861D01*
X0011457Y0018609D01*
X0011416Y0018356D01*
X0011381Y0018102D01*
X0011352Y0017847D01*
X0011330Y0017592D01*
X0011314Y0017336D01*
X0011304Y0017080D01*
X0011300Y0016824D01*
X0011303Y0016567D01*
X0011311Y0016311D01*
X0011326Y0016055D01*
X0011348Y0015800D01*
X0030673Y0015800D02*
X0032252Y0015800D01*
X0035176Y0008303D02*
X0035176Y0007553D01*
X0032174Y0004550D01*
X0035176Y0004550D01*
X0009849Y0054250D02*
X0010600Y0055001D01*
X0010600Y0055751D01*
X0009849Y0056502D01*
X0006096Y0056502D01*
X0006096Y0055751D02*
X0006096Y0057253D01*
X0008348Y0058854D02*
X0008348Y0061856D01*
X0006096Y0061106D02*
X0008348Y0058854D01*
X0010600Y0061106D02*
X0006096Y0061106D01*
X0065747Y0153050D02*
X0064246Y0154551D01*
X0068750Y0154551D01*
X0068750Y0153050D02*
X0068750Y0156053D01*
X0067999Y0157654D02*
X0064997Y0160656D01*
X0067999Y0160656D01*
X0068750Y0159906D01*
X0068750Y0158405D01*
X0067999Y0157654D01*
X0064997Y0157654D01*
X0064246Y0158405D01*
X0064246Y0159906D01*
X0064997Y0160656D01*
X0064246Y0162258D02*
X0068750Y0162258D01*
X0067249Y0162258D02*
X0065747Y0164510D01*
X0067249Y0162258D02*
X0068750Y0164510D01*
X0068831Y0176100D02*
X0068080Y0176851D01*
X0068080Y0180604D01*
X0066479Y0179853D02*
X0066479Y0179103D01*
X0065728Y0178352D01*
X0063476Y0178352D01*
X0063476Y0176100D02*
X0063476Y0180604D01*
X0065728Y0180604D01*
X0066479Y0179853D01*
X0065728Y0178352D02*
X0066479Y0177601D01*
X0066479Y0176851D01*
X0065728Y0176100D01*
X0063476Y0176100D01*
X0068831Y0176100D02*
X0070332Y0176100D01*
X0071083Y0176851D01*
X0071083Y0180604D01*
X0072684Y0180604D02*
X0075687Y0180604D01*
X0074186Y0180604D02*
X0074186Y0176100D01*
X0078789Y0176100D02*
X0078789Y0180604D01*
X0077288Y0180604D02*
X0080291Y0180604D01*
X0081892Y0179853D02*
X0081892Y0176851D01*
X0082643Y0176100D01*
X0084144Y0176100D01*
X0084895Y0176851D01*
X0084895Y0179853D01*
X0084144Y0180604D01*
X0082643Y0180604D01*
X0081892Y0179853D01*
X0086496Y0180604D02*
X0086496Y0176100D01*
X0089499Y0176100D02*
X0086496Y0180604D01*
X0089499Y0180604D02*
X0089499Y0176100D01*
X0103050Y0183050D02*
X0143050Y0183050D01*
X0143050Y0193050D01*
X0103050Y0193050D01*
X0103050Y0183050D01*
X0137546Y0166698D02*
X0137546Y0165197D01*
X0138297Y0164446D01*
X0138297Y0162845D02*
X0137546Y0162094D01*
X0137546Y0160593D01*
X0138297Y0159842D01*
X0141299Y0159842D01*
X0142050Y0160593D01*
X0142050Y0162094D01*
X0141299Y0162845D01*
X0141299Y0164446D02*
X0142050Y0165197D01*
X0142050Y0166698D01*
X0141299Y0167449D01*
X0140549Y0167449D01*
X0139798Y0166698D01*
X0139798Y0165947D01*
X0139798Y0166698D02*
X0139047Y0167449D01*
X0138297Y0167449D01*
X0137546Y0166698D01*
X0142297Y0175050D02*
X0145299Y0175050D01*
X0146050Y0175801D01*
X0146050Y0177302D01*
X0145299Y0178053D01*
X0145299Y0179654D02*
X0146050Y0180405D01*
X0146050Y0181906D01*
X0145299Y0182656D01*
X0143798Y0182656D01*
X0143047Y0181906D01*
X0143047Y0181155D01*
X0143798Y0179654D01*
X0141546Y0179654D01*
X0141546Y0182656D01*
X0142297Y0178053D02*
X0141546Y0177302D01*
X0141546Y0175801D01*
X0142297Y0175050D01*
X0147546Y0172260D02*
X0147546Y0169258D01*
X0152050Y0169258D01*
X0152050Y0167656D02*
X0149047Y0167656D01*
X0149798Y0169258D02*
X0149798Y0170759D01*
X0152050Y0167656D02*
X0152050Y0165405D01*
X0151299Y0164654D01*
X0149047Y0164654D01*
X0152050Y0163053D02*
X0152050Y0160050D01*
X0152050Y0161551D02*
X0147546Y0161551D01*
X0149047Y0160050D01*
X0134800Y0148196D02*
X0130296Y0148196D01*
X0130296Y0151199D01*
X0132548Y0149697D02*
X0132548Y0148196D01*
X0131797Y0146595D02*
X0134800Y0146595D01*
X0134800Y0144343D01*
X0134049Y0143592D01*
X0131797Y0143592D01*
X0134800Y0141991D02*
X0134800Y0138988D01*
X0134800Y0140489D02*
X0130296Y0140489D01*
X0131797Y0138988D01*
X0134049Y0137437D02*
X0134800Y0137437D01*
X0134800Y0136686D01*
X0134049Y0136686D01*
X0134049Y0137437D01*
X0134049Y0135085D02*
X0134800Y0134334D01*
X0134800Y0132833D01*
X0134049Y0132082D01*
X0131047Y0135085D01*
X0134049Y0135085D01*
X0131047Y0135085D02*
X0130296Y0134334D01*
X0130296Y0132833D01*
X0131047Y0132082D01*
X0134049Y0132082D01*
X0191746Y0144643D02*
X0191746Y0146145D01*
X0191746Y0145394D02*
X0195499Y0145394D01*
X0196250Y0144643D01*
X0196250Y0143893D01*
X0195499Y0143142D01*
X0195499Y0147746D02*
X0196250Y0148497D01*
X0196250Y0149998D01*
X0195499Y0150749D01*
X0194749Y0150749D01*
X0193998Y0149998D01*
X0193998Y0149247D01*
X0193998Y0149998D02*
X0193247Y0150749D01*
X0192497Y0150749D01*
X0191746Y0149998D01*
X0191746Y0148497D01*
X0192497Y0147746D01*
X0051050Y0157050D02*
X0046546Y0157050D01*
X0046546Y0159302D01*
X0047297Y0160053D01*
X0048798Y0160053D01*
X0049549Y0159302D01*
X0049549Y0157050D01*
X0049549Y0158551D02*
X0051050Y0160053D01*
X0051050Y0161654D02*
X0051050Y0164656D01*
X0051050Y0163155D02*
X0046546Y0163155D01*
X0048047Y0161654D01*
X0029703Y0180004D02*
X0026700Y0180004D01*
X0028202Y0180004D02*
X0028202Y0175500D01*
X0025132Y0175500D02*
X0023631Y0175500D01*
X0024382Y0175500D02*
X0024382Y0180004D01*
X0025132Y0180004D02*
X0023631Y0180004D01*
X0022030Y0180004D02*
X0019027Y0177001D01*
X0019778Y0177752D02*
X0022030Y0175500D01*
X0019027Y0175500D02*
X0019027Y0180004D01*
X0017426Y0179253D02*
X0016675Y0180004D01*
X0015174Y0180004D01*
X0014423Y0179253D01*
X0014423Y0176251D01*
X0015174Y0175500D01*
X0016675Y0175500D01*
X0017426Y0176251D01*
X0012855Y0175500D02*
X0011354Y0175500D01*
X0012105Y0175500D02*
X0012105Y0180004D01*
X0012855Y0180004D02*
X0011354Y0180004D01*
X0009753Y0179253D02*
X0009753Y0177752D01*
X0009002Y0177001D01*
X0006750Y0177001D01*
X0006750Y0175500D02*
X0006750Y0180004D01*
X0009002Y0180004D01*
X0009753Y0179253D01*
X0111592Y0008554D02*
X0113844Y0008554D01*
X0114595Y0007803D01*
X0114595Y0006302D01*
X0113844Y0005551D01*
X0111592Y0005551D01*
X0111592Y0004050D02*
X0111592Y0008554D01*
X0113093Y0005551D02*
X0114595Y0004050D01*
X0116196Y0004801D02*
X0116947Y0004050D01*
X0118448Y0004050D01*
X0119199Y0004801D01*
X0119199Y0005551D01*
X0118448Y0006302D01*
X0117697Y0006302D01*
X0118448Y0006302D02*
X0119199Y0007053D01*
X0119199Y0007803D01*
X0118448Y0008554D01*
X0116947Y0008554D01*
X0116196Y0007803D01*
X0120988Y0008003D02*
X0121739Y0008754D01*
X0123240Y0008754D01*
X0123991Y0008003D01*
X0123991Y0007253D01*
X0123240Y0006502D01*
X0123991Y0005751D01*
X0123991Y0005001D01*
X0123240Y0004250D01*
X0121739Y0004250D01*
X0120988Y0005001D01*
X0122489Y0006502D02*
X0123240Y0006502D01*
X0125592Y0008003D02*
X0126343Y0008754D01*
X0127844Y0008754D01*
X0128595Y0008003D01*
X0128595Y0007253D01*
X0127844Y0006502D01*
X0128595Y0005751D01*
X0128595Y0005001D01*
X0127844Y0004250D01*
X0126343Y0004250D01*
X0125592Y0005001D01*
X0127093Y0006502D02*
X0127844Y0006502D01*
X0130196Y0005001D02*
X0130196Y0008003D01*
X0130947Y0008754D01*
X0132448Y0008754D01*
X0133199Y0008003D01*
X0130196Y0005001D01*
X0130947Y0004250D01*
X0132448Y0004250D01*
X0133199Y0005001D01*
X0133199Y0008003D01*
D15*
X0132050Y0009800D02*
X0130550Y0009800D01*
X0130050Y0010300D01*
X0111050Y0010300D01*
X0110550Y0009800D01*
X0109050Y0009800D01*
X0108990Y0009802D01*
X0108929Y0009807D01*
X0108870Y0009816D01*
X0108811Y0009829D01*
X0108752Y0009845D01*
X0108695Y0009865D01*
X0108640Y0009888D01*
X0108585Y0009915D01*
X0108533Y0009944D01*
X0108482Y0009977D01*
X0108433Y0010013D01*
X0108387Y0010051D01*
X0108343Y0010093D01*
X0108301Y0010137D01*
X0108263Y0010183D01*
X0108227Y0010232D01*
X0108194Y0010283D01*
X0108165Y0010335D01*
X0108138Y0010390D01*
X0108115Y0010445D01*
X0108095Y0010502D01*
X0108079Y0010561D01*
X0108066Y0010620D01*
X0108057Y0010679D01*
X0108052Y0010740D01*
X0108050Y0010800D01*
X0108050Y0017800D02*
X0108052Y0017860D01*
X0108057Y0017921D01*
X0108066Y0017980D01*
X0108079Y0018039D01*
X0108095Y0018098D01*
X0108115Y0018155D01*
X0108138Y0018210D01*
X0108165Y0018265D01*
X0108194Y0018317D01*
X0108227Y0018368D01*
X0108263Y0018417D01*
X0108301Y0018463D01*
X0108343Y0018507D01*
X0108387Y0018549D01*
X0108433Y0018587D01*
X0108482Y0018623D01*
X0108533Y0018656D01*
X0108585Y0018685D01*
X0108640Y0018712D01*
X0108695Y0018735D01*
X0108752Y0018755D01*
X0108811Y0018771D01*
X0108870Y0018784D01*
X0108929Y0018793D01*
X0108990Y0018798D01*
X0109050Y0018800D01*
X0110550Y0018800D01*
X0111050Y0018300D01*
X0130050Y0018300D01*
X0130550Y0018800D01*
X0132050Y0018800D01*
X0132110Y0018798D01*
X0132171Y0018793D01*
X0132230Y0018784D01*
X0132289Y0018771D01*
X0132348Y0018755D01*
X0132405Y0018735D01*
X0132460Y0018712D01*
X0132515Y0018685D01*
X0132567Y0018656D01*
X0132618Y0018623D01*
X0132667Y0018587D01*
X0132713Y0018549D01*
X0132757Y0018507D01*
X0132799Y0018463D01*
X0132837Y0018417D01*
X0132873Y0018368D01*
X0132906Y0018317D01*
X0132935Y0018265D01*
X0132962Y0018210D01*
X0132985Y0018155D01*
X0133005Y0018098D01*
X0133021Y0018039D01*
X0133034Y0017980D01*
X0133043Y0017921D01*
X0133048Y0017860D01*
X0133050Y0017800D01*
X0133300Y0022300D02*
X0131800Y0022300D01*
X0131300Y0022800D01*
X0112300Y0022800D01*
X0111800Y0022300D01*
X0110300Y0022300D01*
X0110240Y0022302D01*
X0110179Y0022307D01*
X0110120Y0022316D01*
X0110061Y0022329D01*
X0110002Y0022345D01*
X0109945Y0022365D01*
X0109890Y0022388D01*
X0109835Y0022415D01*
X0109783Y0022444D01*
X0109732Y0022477D01*
X0109683Y0022513D01*
X0109637Y0022551D01*
X0109593Y0022593D01*
X0109551Y0022637D01*
X0109513Y0022683D01*
X0109477Y0022732D01*
X0109444Y0022783D01*
X0109415Y0022835D01*
X0109388Y0022890D01*
X0109365Y0022945D01*
X0109345Y0023002D01*
X0109329Y0023061D01*
X0109316Y0023120D01*
X0109307Y0023179D01*
X0109302Y0023240D01*
X0109300Y0023300D01*
X0109300Y0030300D02*
X0109302Y0030360D01*
X0109307Y0030421D01*
X0109316Y0030480D01*
X0109329Y0030539D01*
X0109345Y0030598D01*
X0109365Y0030655D01*
X0109388Y0030710D01*
X0109415Y0030765D01*
X0109444Y0030817D01*
X0109477Y0030868D01*
X0109513Y0030917D01*
X0109551Y0030963D01*
X0109593Y0031007D01*
X0109637Y0031049D01*
X0109683Y0031087D01*
X0109732Y0031123D01*
X0109783Y0031156D01*
X0109835Y0031185D01*
X0109890Y0031212D01*
X0109945Y0031235D01*
X0110002Y0031255D01*
X0110061Y0031271D01*
X0110120Y0031284D01*
X0110179Y0031293D01*
X0110240Y0031298D01*
X0110300Y0031300D01*
X0111800Y0031300D01*
X0112300Y0030800D01*
X0131300Y0030800D01*
X0131800Y0031300D01*
X0133300Y0031300D01*
X0133360Y0031298D01*
X0133421Y0031293D01*
X0133480Y0031284D01*
X0133539Y0031271D01*
X0133598Y0031255D01*
X0133655Y0031235D01*
X0133710Y0031212D01*
X0133765Y0031185D01*
X0133817Y0031156D01*
X0133868Y0031123D01*
X0133917Y0031087D01*
X0133963Y0031049D01*
X0134007Y0031007D01*
X0134049Y0030963D01*
X0134087Y0030917D01*
X0134123Y0030868D01*
X0134156Y0030817D01*
X0134185Y0030765D01*
X0134212Y0030710D01*
X0134235Y0030655D01*
X0134255Y0030598D01*
X0134271Y0030539D01*
X0134284Y0030480D01*
X0134293Y0030421D01*
X0134298Y0030360D01*
X0134300Y0030300D01*
X0134300Y0023300D02*
X0134298Y0023240D01*
X0134293Y0023179D01*
X0134284Y0023120D01*
X0134271Y0023061D01*
X0134255Y0023002D01*
X0134235Y0022945D01*
X0134212Y0022890D01*
X0134185Y0022835D01*
X0134156Y0022783D01*
X0134123Y0022732D01*
X0134087Y0022683D01*
X0134049Y0022637D01*
X0134007Y0022593D01*
X0133963Y0022551D01*
X0133917Y0022513D01*
X0133868Y0022477D01*
X0133817Y0022444D01*
X0133765Y0022415D01*
X0133710Y0022388D01*
X0133655Y0022365D01*
X0133598Y0022345D01*
X0133539Y0022329D01*
X0133480Y0022316D01*
X0133421Y0022307D01*
X0133360Y0022302D01*
X0133300Y0022300D01*
X0133050Y0010800D02*
X0133048Y0010740D01*
X0133043Y0010679D01*
X0133034Y0010620D01*
X0133021Y0010561D01*
X0133005Y0010502D01*
X0132985Y0010445D01*
X0132962Y0010390D01*
X0132935Y0010335D01*
X0132906Y0010283D01*
X0132873Y0010232D01*
X0132837Y0010183D01*
X0132799Y0010137D01*
X0132757Y0010093D01*
X0132713Y0010051D01*
X0132667Y0010013D01*
X0132618Y0009977D01*
X0132567Y0009944D01*
X0132515Y0009915D01*
X0132460Y0009888D01*
X0132405Y0009865D01*
X0132348Y0009845D01*
X0132289Y0009829D01*
X0132230Y0009816D01*
X0132171Y0009807D01*
X0132110Y0009802D01*
X0132050Y0009800D01*
X0148050Y0020300D02*
X0148204Y0020298D01*
X0148358Y0020292D01*
X0148512Y0020282D01*
X0148666Y0020268D01*
X0148819Y0020251D01*
X0148971Y0020229D01*
X0149123Y0020203D01*
X0149275Y0020174D01*
X0149425Y0020140D01*
X0149575Y0020103D01*
X0149723Y0020062D01*
X0149871Y0020017D01*
X0150017Y0019968D01*
X0150162Y0019916D01*
X0150305Y0019860D01*
X0150448Y0019800D01*
X0150588Y0019737D01*
X0150727Y0019670D01*
X0150864Y0019599D01*
X0150999Y0019525D01*
X0151132Y0019448D01*
X0151264Y0019367D01*
X0151393Y0019283D01*
X0151520Y0019195D01*
X0151644Y0019104D01*
X0151766Y0019011D01*
X0151886Y0018913D01*
X0152003Y0018813D01*
X0152118Y0018710D01*
X0152230Y0018604D01*
X0152339Y0018496D01*
X0152445Y0018384D01*
X0152549Y0018270D01*
X0152649Y0018153D01*
X0152747Y0018034D01*
X0152841Y0017912D01*
X0152932Y0017787D01*
X0148050Y0008300D02*
X0147898Y0008302D01*
X0147747Y0008308D01*
X0147596Y0008317D01*
X0147444Y0008331D01*
X0147294Y0008348D01*
X0147144Y0008369D01*
X0146994Y0008394D01*
X0146845Y0008422D01*
X0146697Y0008455D01*
X0146550Y0008491D01*
X0146403Y0008530D01*
X0146258Y0008574D01*
X0146114Y0008621D01*
X0145971Y0008672D01*
X0145830Y0008726D01*
X0145689Y0008784D01*
X0145551Y0008845D01*
X0145414Y0008910D01*
X0145278Y0008979D01*
X0145145Y0009050D01*
X0145013Y0009125D01*
X0144883Y0009204D01*
X0144756Y0009285D01*
X0144630Y0009370D01*
X0144506Y0009458D01*
X0144385Y0009549D01*
X0144266Y0009643D01*
X0144150Y0009741D01*
X0144036Y0009841D01*
X0143924Y0009943D01*
X0143816Y0010049D01*
X0143710Y0010157D01*
X0143606Y0010268D01*
X0143506Y0010382D01*
X0143408Y0010498D01*
X0143314Y0010617D01*
X0148050Y0008300D02*
X0148202Y0008302D01*
X0148353Y0008308D01*
X0148504Y0008317D01*
X0148656Y0008331D01*
X0148806Y0008348D01*
X0148956Y0008369D01*
X0149106Y0008394D01*
X0149255Y0008422D01*
X0149403Y0008455D01*
X0149550Y0008491D01*
X0149697Y0008530D01*
X0149842Y0008574D01*
X0149986Y0008621D01*
X0150129Y0008672D01*
X0150270Y0008726D01*
X0150411Y0008784D01*
X0150549Y0008845D01*
X0150686Y0008910D01*
X0150822Y0008979D01*
X0150955Y0009050D01*
X0151087Y0009125D01*
X0151217Y0009204D01*
X0151344Y0009285D01*
X0151470Y0009370D01*
X0151594Y0009458D01*
X0151715Y0009549D01*
X0151834Y0009643D01*
X0151950Y0009741D01*
X0152064Y0009841D01*
X0152176Y0009943D01*
X0152284Y0010049D01*
X0152390Y0010157D01*
X0152494Y0010268D01*
X0152594Y0010382D01*
X0152692Y0010498D01*
X0152786Y0010617D01*
X0148050Y0020300D02*
X0147900Y0020298D01*
X0147749Y0020292D01*
X0147599Y0020283D01*
X0147450Y0020270D01*
X0147300Y0020253D01*
X0147151Y0020232D01*
X0147003Y0020208D01*
X0146855Y0020180D01*
X0146708Y0020148D01*
X0146562Y0020113D01*
X0146417Y0020073D01*
X0146273Y0020031D01*
X0146130Y0019984D01*
X0145988Y0019934D01*
X0145847Y0019881D01*
X0145708Y0019824D01*
X0145570Y0019764D01*
X0145434Y0019700D01*
X0145300Y0019633D01*
X0145167Y0019562D01*
X0145036Y0019488D01*
X0144907Y0019411D01*
X0144780Y0019330D01*
X0144655Y0019247D01*
X0144532Y0019160D01*
X0144411Y0019071D01*
X0144293Y0018978D01*
X0144177Y0018882D01*
X0144063Y0018784D01*
X0143952Y0018683D01*
X0143843Y0018578D01*
X0143738Y0018472D01*
X0143634Y0018362D01*
X0143534Y0018250D01*
X0143436Y0018136D01*
X0143342Y0018019D01*
X0143250Y0017900D01*
X0113300Y0031800D02*
X0090300Y0031800D01*
X0090300Y0171800D01*
X0097800Y0171800D01*
X0097802Y0171674D01*
X0097808Y0171549D01*
X0097818Y0171424D01*
X0097832Y0171299D01*
X0097849Y0171174D01*
X0097871Y0171050D01*
X0097896Y0170927D01*
X0097926Y0170805D01*
X0097959Y0170684D01*
X0097996Y0170564D01*
X0098036Y0170445D01*
X0098081Y0170328D01*
X0098129Y0170211D01*
X0098181Y0170097D01*
X0098236Y0169984D01*
X0098295Y0169873D01*
X0098357Y0169764D01*
X0098423Y0169657D01*
X0098492Y0169552D01*
X0098564Y0169449D01*
X0098639Y0169348D01*
X0098718Y0169250D01*
X0098800Y0169155D01*
X0098884Y0169062D01*
X0098972Y0168972D01*
X0099062Y0168884D01*
X0099155Y0168800D01*
X0099250Y0168718D01*
X0099348Y0168639D01*
X0099449Y0168564D01*
X0099552Y0168492D01*
X0099657Y0168423D01*
X0099764Y0168357D01*
X0099873Y0168295D01*
X0099984Y0168236D01*
X0100097Y0168181D01*
X0100211Y0168129D01*
X0100328Y0168081D01*
X0100445Y0168036D01*
X0100564Y0167996D01*
X0100684Y0167959D01*
X0100805Y0167926D01*
X0100927Y0167896D01*
X0101050Y0167871D01*
X0101174Y0167849D01*
X0101299Y0167832D01*
X0101424Y0167818D01*
X0101549Y0167808D01*
X0101674Y0167802D01*
X0101800Y0167800D01*
X0101926Y0167802D01*
X0102051Y0167808D01*
X0102176Y0167818D01*
X0102301Y0167832D01*
X0102426Y0167849D01*
X0102550Y0167871D01*
X0102673Y0167896D01*
X0102795Y0167926D01*
X0102916Y0167959D01*
X0103036Y0167996D01*
X0103155Y0168036D01*
X0103272Y0168081D01*
X0103389Y0168129D01*
X0103503Y0168181D01*
X0103616Y0168236D01*
X0103727Y0168295D01*
X0103836Y0168357D01*
X0103943Y0168423D01*
X0104048Y0168492D01*
X0104151Y0168564D01*
X0104252Y0168639D01*
X0104350Y0168718D01*
X0104445Y0168800D01*
X0104538Y0168884D01*
X0104628Y0168972D01*
X0104716Y0169062D01*
X0104800Y0169155D01*
X0104882Y0169250D01*
X0104961Y0169348D01*
X0105036Y0169449D01*
X0105108Y0169552D01*
X0105177Y0169657D01*
X0105243Y0169764D01*
X0105305Y0169873D01*
X0105364Y0169984D01*
X0105419Y0170097D01*
X0105471Y0170211D01*
X0105519Y0170328D01*
X0105564Y0170445D01*
X0105604Y0170564D01*
X0105641Y0170684D01*
X0105674Y0170805D01*
X0105704Y0170927D01*
X0105729Y0171050D01*
X0105751Y0171174D01*
X0105768Y0171299D01*
X0105782Y0171424D01*
X0105792Y0171549D01*
X0105798Y0171674D01*
X0105800Y0171800D01*
X0113300Y0171800D01*
X0113300Y0031800D01*
X0091800Y0005800D02*
X0091648Y0005802D01*
X0091497Y0005808D01*
X0091346Y0005817D01*
X0091194Y0005831D01*
X0091044Y0005848D01*
X0090894Y0005869D01*
X0090744Y0005894D01*
X0090595Y0005922D01*
X0090447Y0005955D01*
X0090300Y0005991D01*
X0090153Y0006030D01*
X0090008Y0006074D01*
X0089864Y0006121D01*
X0089721Y0006172D01*
X0089580Y0006226D01*
X0089439Y0006284D01*
X0089301Y0006345D01*
X0089164Y0006410D01*
X0089028Y0006479D01*
X0088895Y0006550D01*
X0088763Y0006625D01*
X0088633Y0006704D01*
X0088506Y0006785D01*
X0088380Y0006870D01*
X0088256Y0006958D01*
X0088135Y0007049D01*
X0088016Y0007143D01*
X0087900Y0007241D01*
X0087786Y0007341D01*
X0087674Y0007443D01*
X0087566Y0007549D01*
X0087460Y0007657D01*
X0087356Y0007768D01*
X0087256Y0007882D01*
X0087158Y0007998D01*
X0087064Y0008117D01*
X0091800Y0017800D02*
X0091954Y0017798D01*
X0092108Y0017792D01*
X0092262Y0017782D01*
X0092416Y0017768D01*
X0092569Y0017751D01*
X0092721Y0017729D01*
X0092873Y0017703D01*
X0093025Y0017674D01*
X0093175Y0017640D01*
X0093325Y0017603D01*
X0093473Y0017562D01*
X0093621Y0017517D01*
X0093767Y0017468D01*
X0093912Y0017416D01*
X0094055Y0017360D01*
X0094198Y0017300D01*
X0094338Y0017237D01*
X0094477Y0017170D01*
X0094614Y0017099D01*
X0094749Y0017025D01*
X0094882Y0016948D01*
X0095014Y0016867D01*
X0095143Y0016783D01*
X0095270Y0016695D01*
X0095394Y0016604D01*
X0095516Y0016511D01*
X0095636Y0016413D01*
X0095753Y0016313D01*
X0095868Y0016210D01*
X0095980Y0016104D01*
X0096089Y0015996D01*
X0096195Y0015884D01*
X0096299Y0015770D01*
X0096399Y0015653D01*
X0096497Y0015534D01*
X0096591Y0015412D01*
X0096682Y0015287D01*
X0091800Y0017800D02*
X0091650Y0017798D01*
X0091499Y0017792D01*
X0091349Y0017783D01*
X0091200Y0017770D01*
X0091050Y0017753D01*
X0090901Y0017732D01*
X0090753Y0017708D01*
X0090605Y0017680D01*
X0090458Y0017648D01*
X0090312Y0017613D01*
X0090167Y0017573D01*
X0090023Y0017531D01*
X0089880Y0017484D01*
X0089738Y0017434D01*
X0089597Y0017381D01*
X0089458Y0017324D01*
X0089320Y0017264D01*
X0089184Y0017200D01*
X0089050Y0017133D01*
X0088917Y0017062D01*
X0088786Y0016988D01*
X0088657Y0016911D01*
X0088530Y0016830D01*
X0088405Y0016747D01*
X0088282Y0016660D01*
X0088161Y0016571D01*
X0088043Y0016478D01*
X0087927Y0016382D01*
X0087813Y0016284D01*
X0087702Y0016183D01*
X0087593Y0016078D01*
X0087488Y0015972D01*
X0087384Y0015862D01*
X0087284Y0015750D01*
X0087186Y0015636D01*
X0087092Y0015519D01*
X0087000Y0015400D01*
X0091800Y0005800D02*
X0091952Y0005802D01*
X0092103Y0005808D01*
X0092254Y0005817D01*
X0092406Y0005831D01*
X0092556Y0005848D01*
X0092706Y0005869D01*
X0092856Y0005894D01*
X0093005Y0005922D01*
X0093153Y0005955D01*
X0093300Y0005991D01*
X0093447Y0006030D01*
X0093592Y0006074D01*
X0093736Y0006121D01*
X0093879Y0006172D01*
X0094020Y0006226D01*
X0094161Y0006284D01*
X0094299Y0006345D01*
X0094436Y0006410D01*
X0094572Y0006479D01*
X0094705Y0006550D01*
X0094837Y0006625D01*
X0094967Y0006704D01*
X0095094Y0006785D01*
X0095220Y0006870D01*
X0095344Y0006958D01*
X0095465Y0007049D01*
X0095584Y0007143D01*
X0095700Y0007241D01*
X0095814Y0007341D01*
X0095926Y0007443D01*
X0096034Y0007549D01*
X0096140Y0007657D01*
X0096244Y0007768D01*
X0096344Y0007882D01*
X0096442Y0007998D01*
X0096536Y0008117D01*
X0067409Y0020113D02*
X0067247Y0020222D01*
X0067087Y0020335D01*
X0066931Y0020452D01*
X0066777Y0020573D01*
X0066627Y0020698D01*
X0066479Y0020826D01*
X0066335Y0020958D01*
X0066193Y0021093D01*
X0066056Y0021232D01*
X0065921Y0021374D01*
X0065791Y0021519D01*
X0065663Y0021668D01*
X0065540Y0021819D01*
X0065420Y0021974D01*
X0065304Y0022131D01*
X0065192Y0022291D01*
X0065083Y0022454D01*
X0064979Y0022619D01*
X0064879Y0022787D01*
X0064783Y0022958D01*
X0064691Y0023130D01*
X0064604Y0023305D01*
X0064521Y0023482D01*
X0064442Y0023661D01*
X0064367Y0023842D01*
X0064297Y0024024D01*
X0064231Y0024208D01*
X0064170Y0024394D01*
X0064114Y0024581D01*
X0064062Y0024770D01*
X0064015Y0024959D01*
X0063972Y0025150D01*
X0063934Y0025342D01*
X0063901Y0025535D01*
X0063872Y0025728D01*
X0063848Y0025922D01*
X0063829Y0026117D01*
X0063815Y0026312D01*
X0063805Y0026507D01*
X0063801Y0026702D01*
X0063801Y0026898D01*
X0063805Y0027093D01*
X0063815Y0027288D01*
X0063829Y0027483D01*
X0063848Y0027678D01*
X0063872Y0027872D01*
X0063901Y0028065D01*
X0063934Y0028258D01*
X0063972Y0028450D01*
X0064015Y0028641D01*
X0064062Y0028830D01*
X0064114Y0029019D01*
X0064170Y0029206D01*
X0064231Y0029392D01*
X0064297Y0029576D01*
X0064367Y0029758D01*
X0064442Y0029939D01*
X0064521Y0030118D01*
X0064604Y0030295D01*
X0064691Y0030470D01*
X0064783Y0030642D01*
X0064879Y0030813D01*
X0064979Y0030981D01*
X0065083Y0031146D01*
X0065192Y0031309D01*
X0065304Y0031469D01*
X0065420Y0031626D01*
X0065540Y0031781D01*
X0065663Y0031932D01*
X0065791Y0032081D01*
X0065921Y0032226D01*
X0066056Y0032368D01*
X0066193Y0032507D01*
X0066335Y0032642D01*
X0066479Y0032774D01*
X0066627Y0032902D01*
X0066777Y0033027D01*
X0066931Y0033148D01*
X0067087Y0033265D01*
X0067247Y0033378D01*
X0067409Y0033487D01*
X0067300Y0031300D02*
X0067300Y0029300D01*
X0066300Y0030300D02*
X0068300Y0030300D01*
X0076191Y0033487D02*
X0076353Y0033378D01*
X0076513Y0033265D01*
X0076669Y0033148D01*
X0076823Y0033027D01*
X0076973Y0032902D01*
X0077121Y0032774D01*
X0077265Y0032642D01*
X0077407Y0032507D01*
X0077544Y0032368D01*
X0077679Y0032226D01*
X0077809Y0032081D01*
X0077937Y0031932D01*
X0078060Y0031781D01*
X0078180Y0031626D01*
X0078296Y0031469D01*
X0078408Y0031309D01*
X0078517Y0031146D01*
X0078621Y0030981D01*
X0078721Y0030813D01*
X0078817Y0030642D01*
X0078909Y0030470D01*
X0078996Y0030295D01*
X0079079Y0030118D01*
X0079158Y0029939D01*
X0079233Y0029758D01*
X0079303Y0029576D01*
X0079369Y0029392D01*
X0079430Y0029206D01*
X0079486Y0029019D01*
X0079538Y0028830D01*
X0079585Y0028641D01*
X0079628Y0028450D01*
X0079666Y0028258D01*
X0079699Y0028065D01*
X0079728Y0027872D01*
X0079752Y0027678D01*
X0079771Y0027483D01*
X0079785Y0027288D01*
X0079795Y0027093D01*
X0079799Y0026898D01*
X0079799Y0026702D01*
X0079795Y0026507D01*
X0079785Y0026312D01*
X0079771Y0026117D01*
X0079752Y0025922D01*
X0079728Y0025728D01*
X0079699Y0025535D01*
X0079666Y0025342D01*
X0079628Y0025150D01*
X0079585Y0024959D01*
X0079538Y0024770D01*
X0079486Y0024581D01*
X0079430Y0024394D01*
X0079369Y0024208D01*
X0079303Y0024024D01*
X0079233Y0023842D01*
X0079158Y0023661D01*
X0079079Y0023482D01*
X0078996Y0023305D01*
X0078909Y0023130D01*
X0078817Y0022958D01*
X0078721Y0022787D01*
X0078621Y0022619D01*
X0078517Y0022454D01*
X0078408Y0022291D01*
X0078296Y0022131D01*
X0078180Y0021974D01*
X0078060Y0021819D01*
X0077937Y0021668D01*
X0077809Y0021519D01*
X0077679Y0021374D01*
X0077544Y0021232D01*
X0077407Y0021093D01*
X0077265Y0020958D01*
X0077121Y0020826D01*
X0076973Y0020698D01*
X0076823Y0020573D01*
X0076669Y0020452D01*
X0076513Y0020335D01*
X0076353Y0020222D01*
X0076191Y0020113D01*
X0050050Y0022050D02*
X0050050Y0009050D01*
X0050048Y0008963D01*
X0050042Y0008876D01*
X0050033Y0008789D01*
X0050020Y0008703D01*
X0050003Y0008617D01*
X0049982Y0008532D01*
X0049957Y0008449D01*
X0049929Y0008366D01*
X0049898Y0008285D01*
X0049863Y0008205D01*
X0049824Y0008127D01*
X0049782Y0008050D01*
X0049737Y0007975D01*
X0049688Y0007903D01*
X0049637Y0007832D01*
X0049582Y0007764D01*
X0049525Y0007699D01*
X0049464Y0007636D01*
X0049401Y0007575D01*
X0049336Y0007518D01*
X0049268Y0007463D01*
X0049197Y0007412D01*
X0049125Y0007363D01*
X0049050Y0007318D01*
X0048973Y0007276D01*
X0048895Y0007237D01*
X0048815Y0007202D01*
X0048734Y0007171D01*
X0048651Y0007143D01*
X0048568Y0007118D01*
X0048483Y0007097D01*
X0048397Y0007080D01*
X0048311Y0007067D01*
X0048224Y0007058D01*
X0048137Y0007052D01*
X0048050Y0007050D01*
X0043050Y0007050D01*
X0042963Y0007052D01*
X0042876Y0007058D01*
X0042789Y0007067D01*
X0042703Y0007080D01*
X0042617Y0007097D01*
X0042532Y0007118D01*
X0042449Y0007143D01*
X0042366Y0007171D01*
X0042285Y0007202D01*
X0042205Y0007237D01*
X0042127Y0007276D01*
X0042050Y0007318D01*
X0041975Y0007363D01*
X0041903Y0007412D01*
X0041832Y0007463D01*
X0041764Y0007518D01*
X0041699Y0007575D01*
X0041636Y0007636D01*
X0041575Y0007699D01*
X0041518Y0007764D01*
X0041463Y0007832D01*
X0041412Y0007903D01*
X0041363Y0007975D01*
X0041318Y0008050D01*
X0041276Y0008127D01*
X0041237Y0008205D01*
X0041202Y0008285D01*
X0041171Y0008366D01*
X0041143Y0008449D01*
X0041118Y0008532D01*
X0041097Y0008617D01*
X0041080Y0008703D01*
X0041067Y0008789D01*
X0041058Y0008876D01*
X0041052Y0008963D01*
X0041050Y0009050D01*
X0041050Y0022050D01*
X0041052Y0022137D01*
X0041058Y0022224D01*
X0041067Y0022311D01*
X0041080Y0022397D01*
X0041097Y0022483D01*
X0041118Y0022568D01*
X0041143Y0022651D01*
X0041171Y0022734D01*
X0041202Y0022815D01*
X0041237Y0022895D01*
X0041276Y0022973D01*
X0041318Y0023050D01*
X0041363Y0023125D01*
X0041412Y0023197D01*
X0041463Y0023268D01*
X0041518Y0023336D01*
X0041575Y0023401D01*
X0041636Y0023464D01*
X0041699Y0023525D01*
X0041764Y0023582D01*
X0041832Y0023637D01*
X0041903Y0023688D01*
X0041975Y0023737D01*
X0042050Y0023782D01*
X0042127Y0023824D01*
X0042205Y0023863D01*
X0042285Y0023898D01*
X0042366Y0023929D01*
X0042449Y0023957D01*
X0042532Y0023982D01*
X0042617Y0024003D01*
X0042703Y0024020D01*
X0042789Y0024033D01*
X0042876Y0024042D01*
X0042963Y0024048D01*
X0043050Y0024050D01*
X0048050Y0024050D01*
X0048137Y0024048D01*
X0048224Y0024042D01*
X0048311Y0024033D01*
X0048397Y0024020D01*
X0048483Y0024003D01*
X0048568Y0023982D01*
X0048651Y0023957D01*
X0048734Y0023929D01*
X0048815Y0023898D01*
X0048895Y0023863D01*
X0048973Y0023824D01*
X0049050Y0023782D01*
X0049125Y0023737D01*
X0049197Y0023688D01*
X0049268Y0023637D01*
X0049336Y0023582D01*
X0049401Y0023525D01*
X0049464Y0023464D01*
X0049525Y0023401D01*
X0049582Y0023336D01*
X0049637Y0023268D01*
X0049688Y0023197D01*
X0049737Y0023125D01*
X0049782Y0023050D01*
X0049824Y0022973D01*
X0049863Y0022895D01*
X0049898Y0022815D01*
X0049929Y0022734D01*
X0049957Y0022651D01*
X0049982Y0022568D01*
X0050003Y0022483D01*
X0050020Y0022397D01*
X0050033Y0022311D01*
X0050042Y0022224D01*
X0050048Y0022137D01*
X0050050Y0022050D01*
X0043800Y0050300D02*
X0043800Y0051800D01*
X0043300Y0052300D01*
X0043300Y0071300D01*
X0043800Y0071800D01*
X0043800Y0073300D01*
X0043798Y0073360D01*
X0043793Y0073421D01*
X0043784Y0073480D01*
X0043771Y0073539D01*
X0043755Y0073598D01*
X0043735Y0073655D01*
X0043712Y0073710D01*
X0043685Y0073765D01*
X0043656Y0073817D01*
X0043623Y0073868D01*
X0043587Y0073917D01*
X0043549Y0073963D01*
X0043507Y0074007D01*
X0043463Y0074049D01*
X0043417Y0074087D01*
X0043368Y0074123D01*
X0043317Y0074156D01*
X0043265Y0074185D01*
X0043210Y0074212D01*
X0043155Y0074235D01*
X0043098Y0074255D01*
X0043039Y0074271D01*
X0042980Y0074284D01*
X0042921Y0074293D01*
X0042860Y0074298D01*
X0042800Y0074300D01*
X0035800Y0074300D02*
X0035740Y0074298D01*
X0035679Y0074293D01*
X0035620Y0074284D01*
X0035561Y0074271D01*
X0035502Y0074255D01*
X0035445Y0074235D01*
X0035390Y0074212D01*
X0035335Y0074185D01*
X0035283Y0074156D01*
X0035232Y0074123D01*
X0035183Y0074087D01*
X0035137Y0074049D01*
X0035093Y0074007D01*
X0035051Y0073963D01*
X0035013Y0073917D01*
X0034977Y0073868D01*
X0034944Y0073817D01*
X0034915Y0073765D01*
X0034888Y0073710D01*
X0034865Y0073655D01*
X0034845Y0073598D01*
X0034829Y0073539D01*
X0034816Y0073480D01*
X0034807Y0073421D01*
X0034802Y0073360D01*
X0034800Y0073300D01*
X0034800Y0071800D01*
X0035300Y0071300D01*
X0035300Y0052300D01*
X0034800Y0051800D01*
X0034800Y0050300D01*
X0034802Y0050240D01*
X0034807Y0050179D01*
X0034816Y0050120D01*
X0034829Y0050061D01*
X0034845Y0050002D01*
X0034865Y0049945D01*
X0034888Y0049890D01*
X0034915Y0049835D01*
X0034944Y0049783D01*
X0034977Y0049732D01*
X0035013Y0049683D01*
X0035051Y0049637D01*
X0035093Y0049593D01*
X0035137Y0049551D01*
X0035183Y0049513D01*
X0035232Y0049477D01*
X0035283Y0049444D01*
X0035335Y0049415D01*
X0035390Y0049388D01*
X0035445Y0049365D01*
X0035502Y0049345D01*
X0035561Y0049329D01*
X0035620Y0049316D01*
X0035679Y0049307D01*
X0035740Y0049302D01*
X0035800Y0049300D01*
X0042800Y0049300D02*
X0042860Y0049302D01*
X0042921Y0049307D01*
X0042980Y0049316D01*
X0043039Y0049329D01*
X0043098Y0049345D01*
X0043155Y0049365D01*
X0043210Y0049388D01*
X0043265Y0049415D01*
X0043317Y0049444D01*
X0043368Y0049477D01*
X0043417Y0049513D01*
X0043463Y0049551D01*
X0043507Y0049593D01*
X0043549Y0049637D01*
X0043587Y0049683D01*
X0043623Y0049732D01*
X0043656Y0049783D01*
X0043685Y0049835D01*
X0043712Y0049890D01*
X0043735Y0049945D01*
X0043755Y0050002D01*
X0043771Y0050061D01*
X0043784Y0050120D01*
X0043793Y0050179D01*
X0043798Y0050240D01*
X0043800Y0050300D01*
X0067300Y0075300D02*
X0067300Y0088300D01*
X0067302Y0088387D01*
X0067308Y0088474D01*
X0067317Y0088561D01*
X0067330Y0088647D01*
X0067347Y0088733D01*
X0067368Y0088818D01*
X0067393Y0088901D01*
X0067421Y0088984D01*
X0067452Y0089065D01*
X0067487Y0089145D01*
X0067526Y0089223D01*
X0067568Y0089300D01*
X0067613Y0089375D01*
X0067662Y0089447D01*
X0067713Y0089518D01*
X0067768Y0089586D01*
X0067825Y0089651D01*
X0067886Y0089714D01*
X0067949Y0089775D01*
X0068014Y0089832D01*
X0068082Y0089887D01*
X0068153Y0089938D01*
X0068225Y0089987D01*
X0068300Y0090032D01*
X0068377Y0090074D01*
X0068455Y0090113D01*
X0068535Y0090148D01*
X0068616Y0090179D01*
X0068699Y0090207D01*
X0068782Y0090232D01*
X0068867Y0090253D01*
X0068953Y0090270D01*
X0069039Y0090283D01*
X0069126Y0090292D01*
X0069213Y0090298D01*
X0069300Y0090300D01*
X0074300Y0090300D01*
X0074387Y0090298D01*
X0074474Y0090292D01*
X0074561Y0090283D01*
X0074647Y0090270D01*
X0074733Y0090253D01*
X0074818Y0090232D01*
X0074901Y0090207D01*
X0074984Y0090179D01*
X0075065Y0090148D01*
X0075145Y0090113D01*
X0075223Y0090074D01*
X0075300Y0090032D01*
X0075375Y0089987D01*
X0075447Y0089938D01*
X0075518Y0089887D01*
X0075586Y0089832D01*
X0075651Y0089775D01*
X0075714Y0089714D01*
X0075775Y0089651D01*
X0075832Y0089586D01*
X0075887Y0089518D01*
X0075938Y0089447D01*
X0075987Y0089375D01*
X0076032Y0089300D01*
X0076074Y0089223D01*
X0076113Y0089145D01*
X0076148Y0089065D01*
X0076179Y0088984D01*
X0076207Y0088901D01*
X0076232Y0088818D01*
X0076253Y0088733D01*
X0076270Y0088647D01*
X0076283Y0088561D01*
X0076292Y0088474D01*
X0076298Y0088387D01*
X0076300Y0088300D01*
X0076300Y0075300D01*
X0076298Y0075213D01*
X0076292Y0075126D01*
X0076283Y0075039D01*
X0076270Y0074953D01*
X0076253Y0074867D01*
X0076232Y0074782D01*
X0076207Y0074699D01*
X0076179Y0074616D01*
X0076148Y0074535D01*
X0076113Y0074455D01*
X0076074Y0074377D01*
X0076032Y0074300D01*
X0075987Y0074225D01*
X0075938Y0074153D01*
X0075887Y0074082D01*
X0075832Y0074014D01*
X0075775Y0073949D01*
X0075714Y0073886D01*
X0075651Y0073825D01*
X0075586Y0073768D01*
X0075518Y0073713D01*
X0075447Y0073662D01*
X0075375Y0073613D01*
X0075300Y0073568D01*
X0075223Y0073526D01*
X0075145Y0073487D01*
X0075065Y0073452D01*
X0074984Y0073421D01*
X0074901Y0073393D01*
X0074818Y0073368D01*
X0074733Y0073347D01*
X0074647Y0073330D01*
X0074561Y0073317D01*
X0074474Y0073308D01*
X0074387Y0073302D01*
X0074300Y0073300D01*
X0069300Y0073300D01*
X0069213Y0073302D01*
X0069126Y0073308D01*
X0069039Y0073317D01*
X0068953Y0073330D01*
X0068867Y0073347D01*
X0068782Y0073368D01*
X0068699Y0073393D01*
X0068616Y0073421D01*
X0068535Y0073452D01*
X0068455Y0073487D01*
X0068377Y0073526D01*
X0068300Y0073568D01*
X0068225Y0073613D01*
X0068153Y0073662D01*
X0068082Y0073713D01*
X0068014Y0073768D01*
X0067949Y0073825D01*
X0067886Y0073886D01*
X0067825Y0073949D01*
X0067768Y0074014D01*
X0067713Y0074082D01*
X0067662Y0074153D01*
X0067613Y0074225D01*
X0067568Y0074300D01*
X0067526Y0074377D01*
X0067487Y0074455D01*
X0067452Y0074535D01*
X0067421Y0074616D01*
X0067393Y0074699D01*
X0067368Y0074782D01*
X0067347Y0074867D01*
X0067330Y0074953D01*
X0067317Y0075039D01*
X0067308Y0075126D01*
X0067302Y0075213D01*
X0067300Y0075300D01*
X0126300Y0085300D02*
X0128300Y0085300D01*
X0127300Y0084300D02*
X0127300Y0086300D01*
X0127409Y0088487D02*
X0127247Y0088378D01*
X0127087Y0088265D01*
X0126931Y0088148D01*
X0126777Y0088027D01*
X0126627Y0087902D01*
X0126479Y0087774D01*
X0126335Y0087642D01*
X0126193Y0087507D01*
X0126056Y0087368D01*
X0125921Y0087226D01*
X0125791Y0087081D01*
X0125663Y0086932D01*
X0125540Y0086781D01*
X0125420Y0086626D01*
X0125304Y0086469D01*
X0125192Y0086309D01*
X0125083Y0086146D01*
X0124979Y0085981D01*
X0124879Y0085813D01*
X0124783Y0085642D01*
X0124691Y0085470D01*
X0124604Y0085295D01*
X0124521Y0085118D01*
X0124442Y0084939D01*
X0124367Y0084758D01*
X0124297Y0084576D01*
X0124231Y0084392D01*
X0124170Y0084206D01*
X0124114Y0084019D01*
X0124062Y0083830D01*
X0124015Y0083641D01*
X0123972Y0083450D01*
X0123934Y0083258D01*
X0123901Y0083065D01*
X0123872Y0082872D01*
X0123848Y0082678D01*
X0123829Y0082483D01*
X0123815Y0082288D01*
X0123805Y0082093D01*
X0123801Y0081898D01*
X0123801Y0081702D01*
X0123805Y0081507D01*
X0123815Y0081312D01*
X0123829Y0081117D01*
X0123848Y0080922D01*
X0123872Y0080728D01*
X0123901Y0080535D01*
X0123934Y0080342D01*
X0123972Y0080150D01*
X0124015Y0079959D01*
X0124062Y0079770D01*
X0124114Y0079581D01*
X0124170Y0079394D01*
X0124231Y0079208D01*
X0124297Y0079024D01*
X0124367Y0078842D01*
X0124442Y0078661D01*
X0124521Y0078482D01*
X0124604Y0078305D01*
X0124691Y0078130D01*
X0124783Y0077958D01*
X0124879Y0077787D01*
X0124979Y0077619D01*
X0125083Y0077454D01*
X0125192Y0077291D01*
X0125304Y0077131D01*
X0125420Y0076974D01*
X0125540Y0076819D01*
X0125663Y0076668D01*
X0125791Y0076519D01*
X0125921Y0076374D01*
X0126056Y0076232D01*
X0126193Y0076093D01*
X0126335Y0075958D01*
X0126479Y0075826D01*
X0126627Y0075698D01*
X0126777Y0075573D01*
X0126931Y0075452D01*
X0127087Y0075335D01*
X0127247Y0075222D01*
X0127409Y0075113D01*
X0136191Y0075113D02*
X0136353Y0075222D01*
X0136513Y0075335D01*
X0136669Y0075452D01*
X0136823Y0075573D01*
X0136973Y0075698D01*
X0137121Y0075826D01*
X0137265Y0075958D01*
X0137407Y0076093D01*
X0137544Y0076232D01*
X0137679Y0076374D01*
X0137809Y0076519D01*
X0137937Y0076668D01*
X0138060Y0076819D01*
X0138180Y0076974D01*
X0138296Y0077131D01*
X0138408Y0077291D01*
X0138517Y0077454D01*
X0138621Y0077619D01*
X0138721Y0077787D01*
X0138817Y0077958D01*
X0138909Y0078130D01*
X0138996Y0078305D01*
X0139079Y0078482D01*
X0139158Y0078661D01*
X0139233Y0078842D01*
X0139303Y0079024D01*
X0139369Y0079208D01*
X0139430Y0079394D01*
X0139486Y0079581D01*
X0139538Y0079770D01*
X0139585Y0079959D01*
X0139628Y0080150D01*
X0139666Y0080342D01*
X0139699Y0080535D01*
X0139728Y0080728D01*
X0139752Y0080922D01*
X0139771Y0081117D01*
X0139785Y0081312D01*
X0139795Y0081507D01*
X0139799Y0081702D01*
X0139799Y0081898D01*
X0139795Y0082093D01*
X0139785Y0082288D01*
X0139771Y0082483D01*
X0139752Y0082678D01*
X0139728Y0082872D01*
X0139699Y0083065D01*
X0139666Y0083258D01*
X0139628Y0083450D01*
X0139585Y0083641D01*
X0139538Y0083830D01*
X0139486Y0084019D01*
X0139430Y0084206D01*
X0139369Y0084392D01*
X0139303Y0084576D01*
X0139233Y0084758D01*
X0139158Y0084939D01*
X0139079Y0085118D01*
X0138996Y0085295D01*
X0138909Y0085470D01*
X0138817Y0085642D01*
X0138721Y0085813D01*
X0138621Y0085981D01*
X0138517Y0086146D01*
X0138408Y0086309D01*
X0138296Y0086469D01*
X0138180Y0086626D01*
X0138060Y0086781D01*
X0137937Y0086932D01*
X0137809Y0087081D01*
X0137679Y0087226D01*
X0137544Y0087368D01*
X0137407Y0087507D01*
X0137265Y0087642D01*
X0137121Y0087774D01*
X0136973Y0087902D01*
X0136823Y0088027D01*
X0136669Y0088148D01*
X0136513Y0088265D01*
X0136353Y0088378D01*
X0136191Y0088487D01*
X0134300Y0153300D02*
X0129300Y0153300D01*
X0129213Y0153302D01*
X0129126Y0153308D01*
X0129039Y0153317D01*
X0128953Y0153330D01*
X0128867Y0153347D01*
X0128782Y0153368D01*
X0128699Y0153393D01*
X0128616Y0153421D01*
X0128535Y0153452D01*
X0128455Y0153487D01*
X0128377Y0153526D01*
X0128300Y0153568D01*
X0128225Y0153613D01*
X0128153Y0153662D01*
X0128082Y0153713D01*
X0128014Y0153768D01*
X0127949Y0153825D01*
X0127886Y0153886D01*
X0127825Y0153949D01*
X0127768Y0154014D01*
X0127713Y0154082D01*
X0127662Y0154153D01*
X0127613Y0154225D01*
X0127568Y0154300D01*
X0127526Y0154377D01*
X0127487Y0154455D01*
X0127452Y0154535D01*
X0127421Y0154616D01*
X0127393Y0154699D01*
X0127368Y0154782D01*
X0127347Y0154867D01*
X0127330Y0154953D01*
X0127317Y0155039D01*
X0127308Y0155126D01*
X0127302Y0155213D01*
X0127300Y0155300D01*
X0127300Y0168300D01*
X0127302Y0168387D01*
X0127308Y0168474D01*
X0127317Y0168561D01*
X0127330Y0168647D01*
X0127347Y0168733D01*
X0127368Y0168818D01*
X0127393Y0168901D01*
X0127421Y0168984D01*
X0127452Y0169065D01*
X0127487Y0169145D01*
X0127526Y0169223D01*
X0127568Y0169300D01*
X0127613Y0169375D01*
X0127662Y0169447D01*
X0127713Y0169518D01*
X0127768Y0169586D01*
X0127825Y0169651D01*
X0127886Y0169714D01*
X0127949Y0169775D01*
X0128014Y0169832D01*
X0128082Y0169887D01*
X0128153Y0169938D01*
X0128225Y0169987D01*
X0128300Y0170032D01*
X0128377Y0170074D01*
X0128455Y0170113D01*
X0128535Y0170148D01*
X0128616Y0170179D01*
X0128699Y0170207D01*
X0128782Y0170232D01*
X0128867Y0170253D01*
X0128953Y0170270D01*
X0129039Y0170283D01*
X0129126Y0170292D01*
X0129213Y0170298D01*
X0129300Y0170300D01*
X0134300Y0170300D01*
X0134387Y0170298D01*
X0134474Y0170292D01*
X0134561Y0170283D01*
X0134647Y0170270D01*
X0134733Y0170253D01*
X0134818Y0170232D01*
X0134901Y0170207D01*
X0134984Y0170179D01*
X0135065Y0170148D01*
X0135145Y0170113D01*
X0135223Y0170074D01*
X0135300Y0170032D01*
X0135375Y0169987D01*
X0135447Y0169938D01*
X0135518Y0169887D01*
X0135586Y0169832D01*
X0135651Y0169775D01*
X0135714Y0169714D01*
X0135775Y0169651D01*
X0135832Y0169586D01*
X0135887Y0169518D01*
X0135938Y0169447D01*
X0135987Y0169375D01*
X0136032Y0169300D01*
X0136074Y0169223D01*
X0136113Y0169145D01*
X0136148Y0169065D01*
X0136179Y0168984D01*
X0136207Y0168901D01*
X0136232Y0168818D01*
X0136253Y0168733D01*
X0136270Y0168647D01*
X0136283Y0168561D01*
X0136292Y0168474D01*
X0136298Y0168387D01*
X0136300Y0168300D01*
X0136300Y0155300D01*
X0136298Y0155213D01*
X0136292Y0155126D01*
X0136283Y0155039D01*
X0136270Y0154953D01*
X0136253Y0154867D01*
X0136232Y0154782D01*
X0136207Y0154699D01*
X0136179Y0154616D01*
X0136148Y0154535D01*
X0136113Y0154455D01*
X0136074Y0154377D01*
X0136032Y0154300D01*
X0135987Y0154225D01*
X0135938Y0154153D01*
X0135887Y0154082D01*
X0135832Y0154014D01*
X0135775Y0153949D01*
X0135714Y0153886D01*
X0135651Y0153825D01*
X0135586Y0153768D01*
X0135518Y0153713D01*
X0135447Y0153662D01*
X0135375Y0153613D01*
X0135300Y0153568D01*
X0135223Y0153526D01*
X0135145Y0153487D01*
X0135065Y0153452D01*
X0134984Y0153421D01*
X0134901Y0153393D01*
X0134818Y0153368D01*
X0134733Y0153347D01*
X0134647Y0153330D01*
X0134561Y0153317D01*
X0134474Y0153308D01*
X0134387Y0153302D01*
X0134300Y0153300D01*
X0149300Y0173300D02*
X0154300Y0173300D01*
X0154387Y0173302D01*
X0154474Y0173308D01*
X0154561Y0173317D01*
X0154647Y0173330D01*
X0154733Y0173347D01*
X0154818Y0173368D01*
X0154901Y0173393D01*
X0154984Y0173421D01*
X0155065Y0173452D01*
X0155145Y0173487D01*
X0155223Y0173526D01*
X0155300Y0173568D01*
X0155375Y0173613D01*
X0155447Y0173662D01*
X0155518Y0173713D01*
X0155586Y0173768D01*
X0155651Y0173825D01*
X0155714Y0173886D01*
X0155775Y0173949D01*
X0155832Y0174014D01*
X0155887Y0174082D01*
X0155938Y0174153D01*
X0155987Y0174225D01*
X0156032Y0174300D01*
X0156074Y0174377D01*
X0156113Y0174455D01*
X0156148Y0174535D01*
X0156179Y0174616D01*
X0156207Y0174699D01*
X0156232Y0174782D01*
X0156253Y0174867D01*
X0156270Y0174953D01*
X0156283Y0175039D01*
X0156292Y0175126D01*
X0156298Y0175213D01*
X0156300Y0175300D01*
X0156300Y0188300D01*
X0156298Y0188387D01*
X0156292Y0188474D01*
X0156283Y0188561D01*
X0156270Y0188647D01*
X0156253Y0188733D01*
X0156232Y0188818D01*
X0156207Y0188901D01*
X0156179Y0188984D01*
X0156148Y0189065D01*
X0156113Y0189145D01*
X0156074Y0189223D01*
X0156032Y0189300D01*
X0155987Y0189375D01*
X0155938Y0189447D01*
X0155887Y0189518D01*
X0155832Y0189586D01*
X0155775Y0189651D01*
X0155714Y0189714D01*
X0155651Y0189775D01*
X0155586Y0189832D01*
X0155518Y0189887D01*
X0155447Y0189938D01*
X0155375Y0189987D01*
X0155300Y0190032D01*
X0155223Y0190074D01*
X0155145Y0190113D01*
X0155065Y0190148D01*
X0154984Y0190179D01*
X0154901Y0190207D01*
X0154818Y0190232D01*
X0154733Y0190253D01*
X0154647Y0190270D01*
X0154561Y0190283D01*
X0154474Y0190292D01*
X0154387Y0190298D01*
X0154300Y0190300D01*
X0149300Y0190300D01*
X0149213Y0190298D01*
X0149126Y0190292D01*
X0149039Y0190283D01*
X0148953Y0190270D01*
X0148867Y0190253D01*
X0148782Y0190232D01*
X0148699Y0190207D01*
X0148616Y0190179D01*
X0148535Y0190148D01*
X0148455Y0190113D01*
X0148377Y0190074D01*
X0148300Y0190032D01*
X0148225Y0189987D01*
X0148153Y0189938D01*
X0148082Y0189887D01*
X0148014Y0189832D01*
X0147949Y0189775D01*
X0147886Y0189714D01*
X0147825Y0189651D01*
X0147768Y0189586D01*
X0147713Y0189518D01*
X0147662Y0189447D01*
X0147613Y0189375D01*
X0147568Y0189300D01*
X0147526Y0189223D01*
X0147487Y0189145D01*
X0147452Y0189065D01*
X0147421Y0188984D01*
X0147393Y0188901D01*
X0147368Y0188818D01*
X0147347Y0188733D01*
X0147330Y0188647D01*
X0147317Y0188561D01*
X0147308Y0188474D01*
X0147302Y0188387D01*
X0147300Y0188300D01*
X0147300Y0175300D01*
X0147302Y0175213D01*
X0147308Y0175126D01*
X0147317Y0175039D01*
X0147330Y0174953D01*
X0147347Y0174867D01*
X0147368Y0174782D01*
X0147393Y0174699D01*
X0147421Y0174616D01*
X0147452Y0174535D01*
X0147487Y0174455D01*
X0147526Y0174377D01*
X0147568Y0174300D01*
X0147613Y0174225D01*
X0147662Y0174153D01*
X0147713Y0174082D01*
X0147768Y0174014D01*
X0147825Y0173949D01*
X0147886Y0173886D01*
X0147949Y0173825D01*
X0148014Y0173768D01*
X0148082Y0173713D01*
X0148153Y0173662D01*
X0148225Y0173613D01*
X0148300Y0173568D01*
X0148377Y0173526D01*
X0148455Y0173487D01*
X0148535Y0173452D01*
X0148616Y0173421D01*
X0148699Y0173393D01*
X0148782Y0173368D01*
X0148867Y0173347D01*
X0148953Y0173330D01*
X0149039Y0173317D01*
X0149126Y0173308D01*
X0149213Y0173302D01*
X0149300Y0173300D01*
X0061300Y0173300D02*
X0061300Y0171800D01*
X0060800Y0171300D01*
X0060800Y0152300D01*
X0061300Y0151800D01*
X0061300Y0150300D01*
X0061298Y0150240D01*
X0061293Y0150179D01*
X0061284Y0150120D01*
X0061271Y0150061D01*
X0061255Y0150002D01*
X0061235Y0149945D01*
X0061212Y0149890D01*
X0061185Y0149835D01*
X0061156Y0149783D01*
X0061123Y0149732D01*
X0061087Y0149683D01*
X0061049Y0149637D01*
X0061007Y0149593D01*
X0060963Y0149551D01*
X0060917Y0149513D01*
X0060868Y0149477D01*
X0060817Y0149444D01*
X0060765Y0149415D01*
X0060710Y0149388D01*
X0060655Y0149365D01*
X0060598Y0149345D01*
X0060539Y0149329D01*
X0060480Y0149316D01*
X0060421Y0149307D01*
X0060360Y0149302D01*
X0060300Y0149300D01*
X0053300Y0149300D02*
X0053240Y0149302D01*
X0053179Y0149307D01*
X0053120Y0149316D01*
X0053061Y0149329D01*
X0053002Y0149345D01*
X0052945Y0149365D01*
X0052890Y0149388D01*
X0052835Y0149415D01*
X0052783Y0149444D01*
X0052732Y0149477D01*
X0052683Y0149513D01*
X0052637Y0149551D01*
X0052593Y0149593D01*
X0052551Y0149637D01*
X0052513Y0149683D01*
X0052477Y0149732D01*
X0052444Y0149783D01*
X0052415Y0149835D01*
X0052388Y0149890D01*
X0052365Y0149945D01*
X0052345Y0150002D01*
X0052329Y0150061D01*
X0052316Y0150120D01*
X0052307Y0150179D01*
X0052302Y0150240D01*
X0052300Y0150300D01*
X0052300Y0151800D01*
X0052800Y0152300D01*
X0052800Y0171300D01*
X0052300Y0171800D01*
X0052300Y0173300D01*
X0052302Y0173360D01*
X0052307Y0173421D01*
X0052316Y0173480D01*
X0052329Y0173539D01*
X0052345Y0173598D01*
X0052365Y0173655D01*
X0052388Y0173710D01*
X0052415Y0173765D01*
X0052444Y0173817D01*
X0052477Y0173868D01*
X0052513Y0173917D01*
X0052551Y0173963D01*
X0052593Y0174007D01*
X0052637Y0174049D01*
X0052683Y0174087D01*
X0052732Y0174123D01*
X0052783Y0174156D01*
X0052835Y0174185D01*
X0052890Y0174212D01*
X0052945Y0174235D01*
X0053002Y0174255D01*
X0053061Y0174271D01*
X0053120Y0174284D01*
X0053179Y0174293D01*
X0053240Y0174298D01*
X0053300Y0174300D01*
X0060300Y0174300D02*
X0060360Y0174298D01*
X0060421Y0174293D01*
X0060480Y0174284D01*
X0060539Y0174271D01*
X0060598Y0174255D01*
X0060655Y0174235D01*
X0060710Y0174212D01*
X0060765Y0174185D01*
X0060817Y0174156D01*
X0060868Y0174123D01*
X0060917Y0174087D01*
X0060963Y0174049D01*
X0061007Y0174007D01*
X0061049Y0173963D01*
X0061087Y0173917D01*
X0061123Y0173868D01*
X0061156Y0173817D01*
X0061185Y0173765D01*
X0061212Y0173710D01*
X0061235Y0173655D01*
X0061255Y0173598D01*
X0061271Y0173539D01*
X0061284Y0173480D01*
X0061293Y0173421D01*
X0061298Y0173360D01*
X0061300Y0173300D01*
D16*
X0128800Y0163000D02*
X0134800Y0163000D01*
X0134800Y0160500D02*
X0128800Y0160500D01*
X0148800Y0180600D02*
X0154800Y0180600D01*
X0154800Y0183100D02*
X0148800Y0183100D01*
X0074800Y0083100D02*
X0068800Y0083100D01*
X0068800Y0080600D02*
X0074800Y0080600D01*
X0048550Y0016850D02*
X0042550Y0016850D01*
X0042550Y0014350D02*
X0048550Y0014350D01*
D17*
X0084854Y0007831D02*
X0084953Y0007662D01*
X0085057Y0007496D01*
X0085164Y0007332D01*
X0085275Y0007171D01*
X0085390Y0007013D01*
X0085509Y0006858D01*
X0085632Y0006705D01*
X0085758Y0006556D01*
X0085888Y0006410D01*
X0086022Y0006267D01*
X0086159Y0006127D01*
X0086299Y0005991D01*
X0086443Y0005858D01*
X0086590Y0005729D01*
X0086740Y0005603D01*
X0086893Y0005482D01*
X0087049Y0005363D01*
X0087208Y0005249D01*
X0087369Y0005139D01*
X0087534Y0005033D01*
X0087700Y0004930D01*
X0087870Y0004832D01*
X0088041Y0004738D01*
X0088215Y0004648D01*
X0088391Y0004563D01*
X0088569Y0004481D01*
X0088749Y0004405D01*
X0088931Y0004332D01*
X0089114Y0004264D01*
X0089299Y0004201D01*
X0089486Y0004142D01*
X0089674Y0004088D01*
X0089863Y0004038D01*
X0090053Y0003993D01*
X0090245Y0003953D01*
X0090437Y0003917D01*
X0090630Y0003886D01*
X0090824Y0003860D01*
X0091019Y0003838D01*
X0091214Y0003822D01*
X0091409Y0003810D01*
X0091605Y0003802D01*
X0091800Y0003800D01*
X0084741Y0015565D02*
X0084834Y0015733D01*
X0084930Y0015899D01*
X0085030Y0016063D01*
X0085135Y0016224D01*
X0085243Y0016383D01*
X0085355Y0016539D01*
X0085471Y0016693D01*
X0085590Y0016843D01*
X0085713Y0016991D01*
X0085839Y0017136D01*
X0085969Y0017277D01*
X0086102Y0017416D01*
X0086239Y0017551D01*
X0086379Y0017683D01*
X0086521Y0017811D01*
X0086667Y0017936D01*
X0086816Y0018058D01*
X0086968Y0018176D01*
X0087122Y0018290D01*
X0087280Y0018400D01*
X0087439Y0018507D01*
X0087602Y0018610D01*
X0087767Y0018709D01*
X0087934Y0018804D01*
X0088103Y0018894D01*
X0088274Y0018981D01*
X0088448Y0019064D01*
X0088623Y0019142D01*
X0088801Y0019216D01*
X0088980Y0019286D01*
X0089160Y0019352D01*
X0089342Y0019413D01*
X0089526Y0019470D01*
X0089711Y0019522D01*
X0089897Y0019570D01*
X0090084Y0019614D01*
X0090272Y0019653D01*
X0090461Y0019687D01*
X0090651Y0019717D01*
X0090841Y0019742D01*
X0091032Y0019763D01*
X0091224Y0019779D01*
X0091416Y0019791D01*
X0091608Y0019798D01*
X0091800Y0019800D01*
X0097907Y0006632D02*
X0097780Y0006486D01*
X0097651Y0006344D01*
X0097517Y0006204D01*
X0097381Y0006068D01*
X0097241Y0005935D01*
X0097098Y0005805D01*
X0096951Y0005679D01*
X0096802Y0005557D01*
X0096650Y0005438D01*
X0096495Y0005323D01*
X0096338Y0005211D01*
X0096178Y0005104D01*
X0096015Y0005000D01*
X0095849Y0004901D01*
X0095682Y0004805D01*
X0095512Y0004713D01*
X0095340Y0004626D01*
X0095166Y0004542D01*
X0094990Y0004463D01*
X0094812Y0004389D01*
X0094632Y0004318D01*
X0094451Y0004252D01*
X0094268Y0004190D01*
X0094084Y0004133D01*
X0093898Y0004080D01*
X0093711Y0004032D01*
X0093523Y0003988D01*
X0093334Y0003949D01*
X0093144Y0003914D01*
X0092954Y0003884D01*
X0092763Y0003858D01*
X0092571Y0003837D01*
X0092378Y0003821D01*
X0092186Y0003809D01*
X0091993Y0003802D01*
X0091800Y0003800D01*
X0097946Y0016922D02*
X0097819Y0017070D01*
X0097689Y0017215D01*
X0097556Y0017356D01*
X0097419Y0017495D01*
X0097279Y0017630D01*
X0097135Y0017761D01*
X0096988Y0017889D01*
X0096839Y0018014D01*
X0096686Y0018135D01*
X0096531Y0018252D01*
X0096372Y0018365D01*
X0096211Y0018474D01*
X0096047Y0018579D01*
X0095881Y0018681D01*
X0095712Y0018778D01*
X0095542Y0018871D01*
X0095368Y0018960D01*
X0095193Y0019045D01*
X0095016Y0019125D01*
X0094837Y0019201D01*
X0094656Y0019273D01*
X0094473Y0019340D01*
X0094289Y0019403D01*
X0094103Y0019461D01*
X0093916Y0019515D01*
X0093728Y0019564D01*
X0093538Y0019609D01*
X0093348Y0019649D01*
X0093156Y0019684D01*
X0092964Y0019715D01*
X0092771Y0019741D01*
X0092577Y0019762D01*
X0092383Y0019779D01*
X0092189Y0019791D01*
X0091995Y0019798D01*
X0091800Y0019800D01*
X0141104Y0010331D02*
X0141203Y0010162D01*
X0141307Y0009996D01*
X0141414Y0009832D01*
X0141525Y0009671D01*
X0141640Y0009513D01*
X0141759Y0009358D01*
X0141882Y0009205D01*
X0142008Y0009056D01*
X0142138Y0008910D01*
X0142272Y0008767D01*
X0142409Y0008627D01*
X0142549Y0008491D01*
X0142693Y0008358D01*
X0142840Y0008229D01*
X0142990Y0008103D01*
X0143143Y0007982D01*
X0143299Y0007863D01*
X0143458Y0007749D01*
X0143619Y0007639D01*
X0143784Y0007533D01*
X0143950Y0007430D01*
X0144120Y0007332D01*
X0144291Y0007238D01*
X0144465Y0007148D01*
X0144641Y0007063D01*
X0144819Y0006981D01*
X0144999Y0006905D01*
X0145181Y0006832D01*
X0145364Y0006764D01*
X0145549Y0006701D01*
X0145736Y0006642D01*
X0145924Y0006588D01*
X0146113Y0006538D01*
X0146303Y0006493D01*
X0146495Y0006453D01*
X0146687Y0006417D01*
X0146880Y0006386D01*
X0147074Y0006360D01*
X0147269Y0006338D01*
X0147464Y0006322D01*
X0147659Y0006310D01*
X0147855Y0006302D01*
X0148050Y0006300D01*
X0140991Y0018065D02*
X0141084Y0018233D01*
X0141180Y0018399D01*
X0141280Y0018563D01*
X0141385Y0018724D01*
X0141493Y0018883D01*
X0141605Y0019039D01*
X0141721Y0019193D01*
X0141840Y0019343D01*
X0141963Y0019491D01*
X0142089Y0019636D01*
X0142219Y0019777D01*
X0142352Y0019916D01*
X0142489Y0020051D01*
X0142629Y0020183D01*
X0142771Y0020311D01*
X0142917Y0020436D01*
X0143066Y0020558D01*
X0143218Y0020676D01*
X0143372Y0020790D01*
X0143530Y0020900D01*
X0143689Y0021007D01*
X0143852Y0021110D01*
X0144017Y0021209D01*
X0144184Y0021304D01*
X0144353Y0021394D01*
X0144524Y0021481D01*
X0144698Y0021564D01*
X0144873Y0021642D01*
X0145051Y0021716D01*
X0145230Y0021786D01*
X0145410Y0021852D01*
X0145592Y0021913D01*
X0145776Y0021970D01*
X0145961Y0022022D01*
X0146147Y0022070D01*
X0146334Y0022114D01*
X0146522Y0022153D01*
X0146711Y0022187D01*
X0146901Y0022217D01*
X0147091Y0022242D01*
X0147282Y0022263D01*
X0147474Y0022279D01*
X0147666Y0022291D01*
X0147858Y0022298D01*
X0148050Y0022300D01*
X0154157Y0009132D02*
X0154030Y0008986D01*
X0153901Y0008844D01*
X0153767Y0008704D01*
X0153631Y0008568D01*
X0153491Y0008435D01*
X0153348Y0008305D01*
X0153201Y0008179D01*
X0153052Y0008057D01*
X0152900Y0007938D01*
X0152745Y0007823D01*
X0152588Y0007711D01*
X0152428Y0007604D01*
X0152265Y0007500D01*
X0152099Y0007401D01*
X0151932Y0007305D01*
X0151762Y0007213D01*
X0151590Y0007126D01*
X0151416Y0007042D01*
X0151240Y0006963D01*
X0151062Y0006889D01*
X0150882Y0006818D01*
X0150701Y0006752D01*
X0150518Y0006690D01*
X0150334Y0006633D01*
X0150148Y0006580D01*
X0149961Y0006532D01*
X0149773Y0006488D01*
X0149584Y0006449D01*
X0149394Y0006414D01*
X0149204Y0006384D01*
X0149013Y0006358D01*
X0148821Y0006337D01*
X0148628Y0006321D01*
X0148436Y0006309D01*
X0148243Y0006302D01*
X0148050Y0006300D01*
X0154196Y0019422D02*
X0154069Y0019570D01*
X0153939Y0019715D01*
X0153806Y0019856D01*
X0153669Y0019995D01*
X0153529Y0020130D01*
X0153385Y0020261D01*
X0153238Y0020389D01*
X0153089Y0020514D01*
X0152936Y0020635D01*
X0152781Y0020752D01*
X0152622Y0020865D01*
X0152461Y0020974D01*
X0152297Y0021079D01*
X0152131Y0021181D01*
X0151962Y0021278D01*
X0151792Y0021371D01*
X0151618Y0021460D01*
X0151443Y0021545D01*
X0151266Y0021625D01*
X0151087Y0021701D01*
X0150906Y0021773D01*
X0150723Y0021840D01*
X0150539Y0021903D01*
X0150353Y0021961D01*
X0150166Y0022015D01*
X0149978Y0022064D01*
X0149788Y0022109D01*
X0149598Y0022149D01*
X0149406Y0022184D01*
X0149214Y0022215D01*
X0149021Y0022241D01*
X0148827Y0022262D01*
X0148633Y0022279D01*
X0148439Y0022291D01*
X0148245Y0022298D01*
X0148050Y0022300D01*
M02*
