%
M48
M72
T01C0.01969
T02C0.02362
T03C0.03150
T04C0.03200
T05C0.03937
T06C0.04000
T07C0.07480
%
T01
X156800Y131800
X171800Y36800
T02
X26800Y56800
T03
X115176Y188050
X115176Y188050
X123050Y188050
X123050Y188050
X130924Y188050
X130924Y188050
X161721Y178099
X166446Y174950
X161721Y171800
X166446Y168650
X161721Y165501
T04
X56800Y176800
X86800Y166800
X86800Y156800
X86800Y146800
X86800Y136800
X86800Y126800
X86800Y116800
X86800Y106800
X86800Y96800
X86800Y86800
X86800Y76800
X86800Y66800
X86800Y56800
X86800Y46800
X86800Y36800
X71800Y31800
X71800Y21800
X86800Y11800
X96800Y11800
X105550Y14300
X106800Y26800
X116800Y36800
X116800Y46800
X116800Y56800
X116800Y66800
X116800Y76800
X116800Y86800
X116800Y96800
X116800Y106800
X116800Y116800
X116800Y126800
X116800Y136800
X116800Y146800
X116800Y156800
X116800Y166800
X131800Y166800
X131800Y156800
X151800Y176800
X151800Y186800
X56800Y146800
X71800Y86800
X71800Y76800
X39300Y76800
X39300Y46800
X21800Y24300
X16800Y16800
X26800Y16800
X45550Y20550
X45550Y10550
X131800Y76800
X131800Y86800
X136800Y26800
X135550Y14300
X143050Y14300
X153050Y14300
T05
X107302Y188050
X107302Y188050
X138798Y188050
X138798Y188050
T06
X6800Y188050
X16800Y188050
X26800Y188050
X36800Y188050
X46800Y188050
X56800Y188050
X75550Y188050
X85550Y188050
X95550Y188050
X194300Y136800
X194300Y126800
X194300Y116800
X194300Y106800
X194300Y96800
X194300Y86800
X194300Y76800
X194300Y66800
X58050Y36800
X48050Y36800
X38050Y36800
X6800Y66800
X6800Y76800
X6800Y86800
X6800Y96800
X6800Y106800
X6800Y116800
X6800Y126800
X6800Y136800
X51800Y91800
X51800Y81800
X51800Y71800
T07
X181800Y157430
X181800Y186170
M30
