G75*
%MOIN*%
%OFA0B0*%
%FSLAX25Y25*%
%IPPOS*%
%LPD*%
%AMOC8*
5,1,8,0,0,1.08239X$1,22.5*
%
%ADD10C,0.00000*%
D10*
X0001800Y0001800D02*
X0001800Y0193650D01*
X0198650Y0193650D01*
X0198650Y0001800D01*
X0001800Y0001800D01*
X0105333Y0188050D02*
X0105335Y0188138D01*
X0105341Y0188226D01*
X0105351Y0188314D01*
X0105365Y0188402D01*
X0105382Y0188488D01*
X0105404Y0188574D01*
X0105429Y0188658D01*
X0105459Y0188742D01*
X0105491Y0188824D01*
X0105528Y0188904D01*
X0105568Y0188983D01*
X0105612Y0189060D01*
X0105659Y0189135D01*
X0105709Y0189207D01*
X0105763Y0189278D01*
X0105819Y0189345D01*
X0105879Y0189411D01*
X0105941Y0189473D01*
X0106007Y0189533D01*
X0106074Y0189589D01*
X0106145Y0189643D01*
X0106217Y0189693D01*
X0106292Y0189740D01*
X0106369Y0189784D01*
X0106448Y0189824D01*
X0106528Y0189861D01*
X0106610Y0189893D01*
X0106694Y0189923D01*
X0106778Y0189948D01*
X0106864Y0189970D01*
X0106950Y0189987D01*
X0107038Y0190001D01*
X0107126Y0190011D01*
X0107214Y0190017D01*
X0107302Y0190019D01*
X0107390Y0190017D01*
X0107478Y0190011D01*
X0107566Y0190001D01*
X0107654Y0189987D01*
X0107740Y0189970D01*
X0107826Y0189948D01*
X0107910Y0189923D01*
X0107994Y0189893D01*
X0108076Y0189861D01*
X0108156Y0189824D01*
X0108235Y0189784D01*
X0108312Y0189740D01*
X0108387Y0189693D01*
X0108459Y0189643D01*
X0108530Y0189589D01*
X0108597Y0189533D01*
X0108663Y0189473D01*
X0108725Y0189411D01*
X0108785Y0189345D01*
X0108841Y0189278D01*
X0108895Y0189207D01*
X0108945Y0189135D01*
X0108992Y0189060D01*
X0109036Y0188983D01*
X0109076Y0188904D01*
X0109113Y0188824D01*
X0109145Y0188742D01*
X0109175Y0188658D01*
X0109200Y0188574D01*
X0109222Y0188488D01*
X0109239Y0188402D01*
X0109253Y0188314D01*
X0109263Y0188226D01*
X0109269Y0188138D01*
X0109271Y0188050D01*
X0109269Y0187962D01*
X0109263Y0187874D01*
X0109253Y0187786D01*
X0109239Y0187698D01*
X0109222Y0187612D01*
X0109200Y0187526D01*
X0109175Y0187442D01*
X0109145Y0187358D01*
X0109113Y0187276D01*
X0109076Y0187196D01*
X0109036Y0187117D01*
X0108992Y0187040D01*
X0108945Y0186965D01*
X0108895Y0186893D01*
X0108841Y0186822D01*
X0108785Y0186755D01*
X0108725Y0186689D01*
X0108663Y0186627D01*
X0108597Y0186567D01*
X0108530Y0186511D01*
X0108459Y0186457D01*
X0108387Y0186407D01*
X0108312Y0186360D01*
X0108235Y0186316D01*
X0108156Y0186276D01*
X0108076Y0186239D01*
X0107994Y0186207D01*
X0107910Y0186177D01*
X0107826Y0186152D01*
X0107740Y0186130D01*
X0107654Y0186113D01*
X0107566Y0186099D01*
X0107478Y0186089D01*
X0107390Y0186083D01*
X0107302Y0186081D01*
X0107214Y0186083D01*
X0107126Y0186089D01*
X0107038Y0186099D01*
X0106950Y0186113D01*
X0106864Y0186130D01*
X0106778Y0186152D01*
X0106694Y0186177D01*
X0106610Y0186207D01*
X0106528Y0186239D01*
X0106448Y0186276D01*
X0106369Y0186316D01*
X0106292Y0186360D01*
X0106217Y0186407D01*
X0106145Y0186457D01*
X0106074Y0186511D01*
X0106007Y0186567D01*
X0105941Y0186627D01*
X0105879Y0186689D01*
X0105819Y0186755D01*
X0105763Y0186822D01*
X0105709Y0186893D01*
X0105659Y0186965D01*
X0105612Y0187040D01*
X0105568Y0187117D01*
X0105528Y0187196D01*
X0105491Y0187276D01*
X0105459Y0187358D01*
X0105429Y0187442D01*
X0105404Y0187526D01*
X0105382Y0187612D01*
X0105365Y0187698D01*
X0105351Y0187786D01*
X0105341Y0187874D01*
X0105335Y0187962D01*
X0105333Y0188050D01*
X0113601Y0188050D02*
X0113603Y0188129D01*
X0113609Y0188208D01*
X0113619Y0188287D01*
X0113633Y0188365D01*
X0113650Y0188442D01*
X0113672Y0188518D01*
X0113697Y0188593D01*
X0113727Y0188666D01*
X0113759Y0188738D01*
X0113796Y0188809D01*
X0113836Y0188877D01*
X0113879Y0188943D01*
X0113925Y0189007D01*
X0113975Y0189069D01*
X0114028Y0189128D01*
X0114083Y0189184D01*
X0114142Y0189238D01*
X0114203Y0189288D01*
X0114266Y0189336D01*
X0114332Y0189380D01*
X0114400Y0189421D01*
X0114470Y0189458D01*
X0114541Y0189492D01*
X0114615Y0189522D01*
X0114689Y0189548D01*
X0114765Y0189570D01*
X0114842Y0189589D01*
X0114920Y0189604D01*
X0114998Y0189615D01*
X0115077Y0189622D01*
X0115156Y0189625D01*
X0115235Y0189624D01*
X0115314Y0189619D01*
X0115393Y0189610D01*
X0115471Y0189597D01*
X0115548Y0189580D01*
X0115625Y0189560D01*
X0115700Y0189535D01*
X0115774Y0189507D01*
X0115847Y0189475D01*
X0115917Y0189440D01*
X0115986Y0189401D01*
X0116053Y0189358D01*
X0116118Y0189312D01*
X0116180Y0189264D01*
X0116240Y0189212D01*
X0116297Y0189157D01*
X0116351Y0189099D01*
X0116402Y0189039D01*
X0116450Y0188976D01*
X0116495Y0188911D01*
X0116537Y0188843D01*
X0116575Y0188774D01*
X0116609Y0188703D01*
X0116640Y0188630D01*
X0116668Y0188555D01*
X0116691Y0188480D01*
X0116711Y0188403D01*
X0116727Y0188326D01*
X0116739Y0188247D01*
X0116747Y0188169D01*
X0116751Y0188090D01*
X0116751Y0188010D01*
X0116747Y0187931D01*
X0116739Y0187853D01*
X0116727Y0187774D01*
X0116711Y0187697D01*
X0116691Y0187620D01*
X0116668Y0187545D01*
X0116640Y0187470D01*
X0116609Y0187397D01*
X0116575Y0187326D01*
X0116537Y0187257D01*
X0116495Y0187189D01*
X0116450Y0187124D01*
X0116402Y0187061D01*
X0116351Y0187001D01*
X0116297Y0186943D01*
X0116240Y0186888D01*
X0116180Y0186836D01*
X0116118Y0186788D01*
X0116053Y0186742D01*
X0115986Y0186699D01*
X0115917Y0186660D01*
X0115847Y0186625D01*
X0115774Y0186593D01*
X0115700Y0186565D01*
X0115625Y0186540D01*
X0115548Y0186520D01*
X0115471Y0186503D01*
X0115393Y0186490D01*
X0115314Y0186481D01*
X0115235Y0186476D01*
X0115156Y0186475D01*
X0115077Y0186478D01*
X0114998Y0186485D01*
X0114920Y0186496D01*
X0114842Y0186511D01*
X0114765Y0186530D01*
X0114689Y0186552D01*
X0114615Y0186578D01*
X0114541Y0186608D01*
X0114470Y0186642D01*
X0114400Y0186679D01*
X0114332Y0186720D01*
X0114266Y0186764D01*
X0114203Y0186812D01*
X0114142Y0186862D01*
X0114083Y0186916D01*
X0114028Y0186972D01*
X0113975Y0187031D01*
X0113925Y0187093D01*
X0113879Y0187157D01*
X0113836Y0187223D01*
X0113796Y0187291D01*
X0113759Y0187362D01*
X0113727Y0187434D01*
X0113697Y0187507D01*
X0113672Y0187582D01*
X0113650Y0187658D01*
X0113633Y0187735D01*
X0113619Y0187813D01*
X0113609Y0187892D01*
X0113603Y0187971D01*
X0113601Y0188050D01*
X0121475Y0188050D02*
X0121477Y0188129D01*
X0121483Y0188208D01*
X0121493Y0188287D01*
X0121507Y0188365D01*
X0121524Y0188442D01*
X0121546Y0188518D01*
X0121571Y0188593D01*
X0121601Y0188666D01*
X0121633Y0188738D01*
X0121670Y0188809D01*
X0121710Y0188877D01*
X0121753Y0188943D01*
X0121799Y0189007D01*
X0121849Y0189069D01*
X0121902Y0189128D01*
X0121957Y0189184D01*
X0122016Y0189238D01*
X0122077Y0189288D01*
X0122140Y0189336D01*
X0122206Y0189380D01*
X0122274Y0189421D01*
X0122344Y0189458D01*
X0122415Y0189492D01*
X0122489Y0189522D01*
X0122563Y0189548D01*
X0122639Y0189570D01*
X0122716Y0189589D01*
X0122794Y0189604D01*
X0122872Y0189615D01*
X0122951Y0189622D01*
X0123030Y0189625D01*
X0123109Y0189624D01*
X0123188Y0189619D01*
X0123267Y0189610D01*
X0123345Y0189597D01*
X0123422Y0189580D01*
X0123499Y0189560D01*
X0123574Y0189535D01*
X0123648Y0189507D01*
X0123721Y0189475D01*
X0123791Y0189440D01*
X0123860Y0189401D01*
X0123927Y0189358D01*
X0123992Y0189312D01*
X0124054Y0189264D01*
X0124114Y0189212D01*
X0124171Y0189157D01*
X0124225Y0189099D01*
X0124276Y0189039D01*
X0124324Y0188976D01*
X0124369Y0188911D01*
X0124411Y0188843D01*
X0124449Y0188774D01*
X0124483Y0188703D01*
X0124514Y0188630D01*
X0124542Y0188555D01*
X0124565Y0188480D01*
X0124585Y0188403D01*
X0124601Y0188326D01*
X0124613Y0188247D01*
X0124621Y0188169D01*
X0124625Y0188090D01*
X0124625Y0188010D01*
X0124621Y0187931D01*
X0124613Y0187853D01*
X0124601Y0187774D01*
X0124585Y0187697D01*
X0124565Y0187620D01*
X0124542Y0187545D01*
X0124514Y0187470D01*
X0124483Y0187397D01*
X0124449Y0187326D01*
X0124411Y0187257D01*
X0124369Y0187189D01*
X0124324Y0187124D01*
X0124276Y0187061D01*
X0124225Y0187001D01*
X0124171Y0186943D01*
X0124114Y0186888D01*
X0124054Y0186836D01*
X0123992Y0186788D01*
X0123927Y0186742D01*
X0123860Y0186699D01*
X0123791Y0186660D01*
X0123721Y0186625D01*
X0123648Y0186593D01*
X0123574Y0186565D01*
X0123499Y0186540D01*
X0123422Y0186520D01*
X0123345Y0186503D01*
X0123267Y0186490D01*
X0123188Y0186481D01*
X0123109Y0186476D01*
X0123030Y0186475D01*
X0122951Y0186478D01*
X0122872Y0186485D01*
X0122794Y0186496D01*
X0122716Y0186511D01*
X0122639Y0186530D01*
X0122563Y0186552D01*
X0122489Y0186578D01*
X0122415Y0186608D01*
X0122344Y0186642D01*
X0122274Y0186679D01*
X0122206Y0186720D01*
X0122140Y0186764D01*
X0122077Y0186812D01*
X0122016Y0186862D01*
X0121957Y0186916D01*
X0121902Y0186972D01*
X0121849Y0187031D01*
X0121799Y0187093D01*
X0121753Y0187157D01*
X0121710Y0187223D01*
X0121670Y0187291D01*
X0121633Y0187362D01*
X0121601Y0187434D01*
X0121571Y0187507D01*
X0121546Y0187582D01*
X0121524Y0187658D01*
X0121507Y0187735D01*
X0121493Y0187813D01*
X0121483Y0187892D01*
X0121477Y0187971D01*
X0121475Y0188050D01*
X0129349Y0188050D02*
X0129351Y0188129D01*
X0129357Y0188208D01*
X0129367Y0188287D01*
X0129381Y0188365D01*
X0129398Y0188442D01*
X0129420Y0188518D01*
X0129445Y0188593D01*
X0129475Y0188666D01*
X0129507Y0188738D01*
X0129544Y0188809D01*
X0129584Y0188877D01*
X0129627Y0188943D01*
X0129673Y0189007D01*
X0129723Y0189069D01*
X0129776Y0189128D01*
X0129831Y0189184D01*
X0129890Y0189238D01*
X0129951Y0189288D01*
X0130014Y0189336D01*
X0130080Y0189380D01*
X0130148Y0189421D01*
X0130218Y0189458D01*
X0130289Y0189492D01*
X0130363Y0189522D01*
X0130437Y0189548D01*
X0130513Y0189570D01*
X0130590Y0189589D01*
X0130668Y0189604D01*
X0130746Y0189615D01*
X0130825Y0189622D01*
X0130904Y0189625D01*
X0130983Y0189624D01*
X0131062Y0189619D01*
X0131141Y0189610D01*
X0131219Y0189597D01*
X0131296Y0189580D01*
X0131373Y0189560D01*
X0131448Y0189535D01*
X0131522Y0189507D01*
X0131595Y0189475D01*
X0131665Y0189440D01*
X0131734Y0189401D01*
X0131801Y0189358D01*
X0131866Y0189312D01*
X0131928Y0189264D01*
X0131988Y0189212D01*
X0132045Y0189157D01*
X0132099Y0189099D01*
X0132150Y0189039D01*
X0132198Y0188976D01*
X0132243Y0188911D01*
X0132285Y0188843D01*
X0132323Y0188774D01*
X0132357Y0188703D01*
X0132388Y0188630D01*
X0132416Y0188555D01*
X0132439Y0188480D01*
X0132459Y0188403D01*
X0132475Y0188326D01*
X0132487Y0188247D01*
X0132495Y0188169D01*
X0132499Y0188090D01*
X0132499Y0188010D01*
X0132495Y0187931D01*
X0132487Y0187853D01*
X0132475Y0187774D01*
X0132459Y0187697D01*
X0132439Y0187620D01*
X0132416Y0187545D01*
X0132388Y0187470D01*
X0132357Y0187397D01*
X0132323Y0187326D01*
X0132285Y0187257D01*
X0132243Y0187189D01*
X0132198Y0187124D01*
X0132150Y0187061D01*
X0132099Y0187001D01*
X0132045Y0186943D01*
X0131988Y0186888D01*
X0131928Y0186836D01*
X0131866Y0186788D01*
X0131801Y0186742D01*
X0131734Y0186699D01*
X0131665Y0186660D01*
X0131595Y0186625D01*
X0131522Y0186593D01*
X0131448Y0186565D01*
X0131373Y0186540D01*
X0131296Y0186520D01*
X0131219Y0186503D01*
X0131141Y0186490D01*
X0131062Y0186481D01*
X0130983Y0186476D01*
X0130904Y0186475D01*
X0130825Y0186478D01*
X0130746Y0186485D01*
X0130668Y0186496D01*
X0130590Y0186511D01*
X0130513Y0186530D01*
X0130437Y0186552D01*
X0130363Y0186578D01*
X0130289Y0186608D01*
X0130218Y0186642D01*
X0130148Y0186679D01*
X0130080Y0186720D01*
X0130014Y0186764D01*
X0129951Y0186812D01*
X0129890Y0186862D01*
X0129831Y0186916D01*
X0129776Y0186972D01*
X0129723Y0187031D01*
X0129673Y0187093D01*
X0129627Y0187157D01*
X0129584Y0187223D01*
X0129544Y0187291D01*
X0129507Y0187362D01*
X0129475Y0187434D01*
X0129445Y0187507D01*
X0129420Y0187582D01*
X0129398Y0187658D01*
X0129381Y0187735D01*
X0129367Y0187813D01*
X0129357Y0187892D01*
X0129351Y0187971D01*
X0129349Y0188050D01*
X0136829Y0188050D02*
X0136831Y0188138D01*
X0136837Y0188226D01*
X0136847Y0188314D01*
X0136861Y0188402D01*
X0136878Y0188488D01*
X0136900Y0188574D01*
X0136925Y0188658D01*
X0136955Y0188742D01*
X0136987Y0188824D01*
X0137024Y0188904D01*
X0137064Y0188983D01*
X0137108Y0189060D01*
X0137155Y0189135D01*
X0137205Y0189207D01*
X0137259Y0189278D01*
X0137315Y0189345D01*
X0137375Y0189411D01*
X0137437Y0189473D01*
X0137503Y0189533D01*
X0137570Y0189589D01*
X0137641Y0189643D01*
X0137713Y0189693D01*
X0137788Y0189740D01*
X0137865Y0189784D01*
X0137944Y0189824D01*
X0138024Y0189861D01*
X0138106Y0189893D01*
X0138190Y0189923D01*
X0138274Y0189948D01*
X0138360Y0189970D01*
X0138446Y0189987D01*
X0138534Y0190001D01*
X0138622Y0190011D01*
X0138710Y0190017D01*
X0138798Y0190019D01*
X0138886Y0190017D01*
X0138974Y0190011D01*
X0139062Y0190001D01*
X0139150Y0189987D01*
X0139236Y0189970D01*
X0139322Y0189948D01*
X0139406Y0189923D01*
X0139490Y0189893D01*
X0139572Y0189861D01*
X0139652Y0189824D01*
X0139731Y0189784D01*
X0139808Y0189740D01*
X0139883Y0189693D01*
X0139955Y0189643D01*
X0140026Y0189589D01*
X0140093Y0189533D01*
X0140159Y0189473D01*
X0140221Y0189411D01*
X0140281Y0189345D01*
X0140337Y0189278D01*
X0140391Y0189207D01*
X0140441Y0189135D01*
X0140488Y0189060D01*
X0140532Y0188983D01*
X0140572Y0188904D01*
X0140609Y0188824D01*
X0140641Y0188742D01*
X0140671Y0188658D01*
X0140696Y0188574D01*
X0140718Y0188488D01*
X0140735Y0188402D01*
X0140749Y0188314D01*
X0140759Y0188226D01*
X0140765Y0188138D01*
X0140767Y0188050D01*
X0140765Y0187962D01*
X0140759Y0187874D01*
X0140749Y0187786D01*
X0140735Y0187698D01*
X0140718Y0187612D01*
X0140696Y0187526D01*
X0140671Y0187442D01*
X0140641Y0187358D01*
X0140609Y0187276D01*
X0140572Y0187196D01*
X0140532Y0187117D01*
X0140488Y0187040D01*
X0140441Y0186965D01*
X0140391Y0186893D01*
X0140337Y0186822D01*
X0140281Y0186755D01*
X0140221Y0186689D01*
X0140159Y0186627D01*
X0140093Y0186567D01*
X0140026Y0186511D01*
X0139955Y0186457D01*
X0139883Y0186407D01*
X0139808Y0186360D01*
X0139731Y0186316D01*
X0139652Y0186276D01*
X0139572Y0186239D01*
X0139490Y0186207D01*
X0139406Y0186177D01*
X0139322Y0186152D01*
X0139236Y0186130D01*
X0139150Y0186113D01*
X0139062Y0186099D01*
X0138974Y0186089D01*
X0138886Y0186083D01*
X0138798Y0186081D01*
X0138710Y0186083D01*
X0138622Y0186089D01*
X0138534Y0186099D01*
X0138446Y0186113D01*
X0138360Y0186130D01*
X0138274Y0186152D01*
X0138190Y0186177D01*
X0138106Y0186207D01*
X0138024Y0186239D01*
X0137944Y0186276D01*
X0137865Y0186316D01*
X0137788Y0186360D01*
X0137713Y0186407D01*
X0137641Y0186457D01*
X0137570Y0186511D01*
X0137503Y0186567D01*
X0137437Y0186627D01*
X0137375Y0186689D01*
X0137315Y0186755D01*
X0137259Y0186822D01*
X0137205Y0186893D01*
X0137155Y0186965D01*
X0137108Y0187040D01*
X0137064Y0187117D01*
X0137024Y0187196D01*
X0136987Y0187276D01*
X0136955Y0187358D01*
X0136925Y0187442D01*
X0136900Y0187526D01*
X0136878Y0187612D01*
X0136861Y0187698D01*
X0136847Y0187786D01*
X0136837Y0187874D01*
X0136831Y0187962D01*
X0136829Y0188050D01*
M02*
